<?xml version="1.0" encoding="UTF-8" standalone="no"?>
<!-- Created with Inkscape (http://www.inkscape.org/) -->

<svg
   xmlns:dc="http://purl.org/dc/elements/1.1/"
   xmlns:cc="http://creativecommons.org/ns#"
   xmlns:rdf="http://www.w3.org/1999/02/22-rdf-syntax-ns#"
   xmlns:svg="http://www.w3.org/2000/svg"
   xmlns="http://www.w3.org/2000/svg"
   xmlns:sodipodi="http://sodipodi.sourceforge.net/DTD/sodipodi-0.dtd"
   xmlns:inkscape="http://www.inkscape.org/namespaces/inkscape"
   width="210mm"
   height="297mm"
   viewBox="0 0 744.09448819 1052.3622047"
   id="svg2"
   version="1.1"
   inkscape:version="0.91 r13725"
   sodipodi:docname="gravure-dragon-ball-videl-u-need-me-3.svg">
  <title
     id="title3349">Videl U Need Me</title>
  <defs
     id="defs4" />
  <sodipodi:namedview
     id="base"
     pagecolor="#ffffff"
     bordercolor="#666666"
     borderopacity="1.0"
     inkscape:pageopacity="0.0"
     inkscape:pageshadow="2"
     inkscape:zoom="0.35"
     inkscape:cx="1059.8571"
     inkscape:cy="174.28571"
     inkscape:document-units="px"
     inkscape:current-layer="layer1"
     showgrid="false"
     inkscape:window-width="1536"
     inkscape:window-height="877"
     inkscape:window-x="-8"
     inkscape:window-y="-8"
     inkscape:window-maximized="1" />
  <metadata
     id="metadata7">
    <rdf:RDF>
      <cc:Work
         rdf:about="">
        <dc:format>image/svg+xml</dc:format>
        <dc:type
           rdf:resource="http://purl.org/dc/dcmitype/StillImage" />
        <dc:title>Videl U Need Me</dc:title>
      </cc:Work>
    </rdf:RDF>
  </metadata>
  <g
     inkscape:label="Calque 1"
     inkscape:groupmode="layer"
     id="layer1">
    <path
       style="fill:#000000"
       d="m 169.90324,1017.737 -17.86502,-12.934 -4.70847,-0.9396 c -2.58966,-0.5169 -4.77769,-0.9397 -4.86229,-0.9397 -0.0845,0 -1.66524,-1.309 -3.51253,-2.9088 l -3.35872,-2.90876 -14.90286,-0.32596 c -11.31847,-0.24758 -14.92934,-0.40564 -15.01299,-0.65726 -0.0606,-0.18223 -2.94996,-5.96292 -6.420839,-12.84601 -4.246297,-8.42084 -7.096202,-13.71973 -8.711959,-16.19834 l -2.401283,-3.68366 -8.822119,-6.56096 c -4.852155,-3.60855 -9.677174,-7.02594 -10.722258,-7.59419 -12.14647,-6.60464 -21.158495,-14.32337 -27.190314,-23.28829 -4.203487,-6.24753 -6.933094,-13.32378 -8.14956,-21.12698 -0.633163,-4.06147 -0.624529,-12.56401 0.01718,-16.95541 1.982344,-13.5651 7.763473,-27.7843 16.851,-41.44656 1.378428,-2.07233 3.01418,-4.40022 3.635016,-5.17312 0.699626,-0.87097 4.173219,-7.44655 9.136376,-17.29533 4.404183,-8.73954 8.007594,-15.99764 8.007594,-16.12912 0,-0.13147 -0.928109,-1.67404 -2.06246,-3.42795 -7.993628,-12.35951 -9.361783,-22.65297 -3.831478,-28.82668 0.677464,-0.75627 3.126294,-4.83719 5.85974,-9.7651 2.582735,-4.65625 4.912546,-8.64756 5.177359,-8.86959 0.264813,-0.22204 1.762955,-2.40897 3.329223,-4.85986 2.785541,-4.3588 2.929652,-4.66456 6.595789,-13.99494 3.645445,-9.27775 3.811415,-9.63086 6.064803,-12.90296 1.274229,-1.85029 4.717059,-6.51303 7.650741,-10.36163 l 5.333942,-6.99748 0.15973,-2.47624 0.15973,-2.47628 6.84104,-9.08745 6.84106,-9.08745 -0.31811,-3.10408 c -0.17495,-1.70722 -0.37784,-3.40823 -0.45084,-3.77998 -0.11456,-0.58337 1.00569,-1.89187 8.17968,-9.55424 l 8.31242,-8.87831 1.1278,0.0822 1.12781,0.0822 4.33651,-13.40428 c 7.20654,-22.27555 9.79036,-29.32453 14.38395,-39.24109 2.19418,-4.73675 4.54593,-9.70226 5.22612,-11.03446 2.93906,-5.75645 6.48863,-9.55425 8.9298,-9.55425 l 0.73124,0 -0.17188,-3.70058 c -0.60534,-13.03167 -0.6026,-13.14257 0.48295,-19.57946 3.65236,-21.65726 8.16462,-36.33795 12.65252,-41.16522 l 1.01247,-1.08902 0.20244,-3.36272 0.20242,-3.36271 4.5604,-10.84743 4.56039,-10.8474 -0.78384,-3.41799 c -0.43819,-1.91074 -2.0518,-12.61574 -3.65919,-24.27582 -2.43083,-17.63333 -3.02078,-21.35711 -3.81615,-24.08745 -1.31353,-4.50912 -2.24482,-9.1673 -2.46423,-12.32583 -0.14628,-2.10575 -0.34438,-3.01095 -0.91819,-4.19557 -0.40241,-0.83079 -1.67183,-3.56941 -2.82095,-6.08581 l -2.08928,-4.57527 -7.04359,-5.11354 c -3.87397,-2.81244 -7.04449,-5.19174 -7.04559,-5.28733 -0.001,-0.0956 0.59938,-0.55639 1.33439,-1.02403 0.73501,-0.46763 1.45799,-0.9955 1.6066,-1.17305 0.19067,-0.2278 -0.57169,-1.78823 -2.58964,-5.30061 -1.57291,-2.73779 -4.45287,-7.76332 -6.3999,-11.16786 l -3.54004,-6.19007 -6.4578,-16.75103 -6.4578,-16.75103 -0.8231,-6.93272 c -0.71872,-6.05357 -0.85848,-8.4344 -1.10203,-18.77459 -0.43583,-18.50349 -0.53919,-31.90581 -0.28228,-36.60216 0.12956,-2.36837 0.37688,-8.18166 0.5496,-12.9184 0.26422,-7.24569 0.54843,-10.68351 1.79114,-21.66526 0.81239,-7.17913 1.65221,-13.84019 1.86626,-14.80234 0.21405,-0.96215 1.07554,-5.44322 1.91442,-9.95794 l 1.52526,-8.20857 3.68383,-10.76534 c 2.02611,-5.92094 4.95322,-14.21698 6.50468,-18.43565 1.55146,-4.21867 5.88973,-16.08746 9.64058,-26.37507 l 6.81975,-18.70479 7.79117,-10.49621 c 4.28514,-5.77291 9.2653,-12.6378 11.06701,-15.25529 15.30167,-22.230061 31.50379,-38.791785 44.07176,-45.049942 4.77193,-2.376161 5.99688,-2.696674 20.565,-5.380942 l 7.98142,-1.470626 8.78856,0.444948 8.78859,0.444944 6.03177,-6.034275 c 6.52788,-6.530573 11.06157,-10.642666 15.50688,-14.064822 4.64674,-3.577202 9.20931,-6.059805 11.16466,-6.074963 0.45316,-0.0036 3.14052,-1.050702 5.9719,-2.327084 5.67071,-2.55637 8.69835,-3.568915 16.00592,-5.352921 20.7183,-5.057993 39.64313,-5.371641 53.1777,-0.881331 5.4719,1.815392 10.76134,4.759806 14.27752,7.947702 0.97042,0.879828 4.69607,3.580288 8.27921,6.001017 3.58313,2.420727 14.49339,9.935604 24.24505,16.699729 l 17.73027,12.298406 14.55917,12.74515 c 8.00755,7.009828 15.87174,13.956251 17.47596,15.43648 1.6042,1.48023 7.26423,7.32501 12.57777,12.98838 l 9.66101,10.29704 8.08457,14.05955 c 4.44651,7.73274 11.36017,19.55949 15.3637,26.28164 l 7.27911,12.22209 7.72195,18.72825 c 4.2471,10.30054 10.5782,26.10437 14.06912,35.11961 l 6.34717,16.39135 2.58328,11.06026 2.58328,11.06028 1.48971,14.67751 c 1.23866,12.20413 1.61334,17.19325 2.22336,29.60638 l 0.73368,14.9289 -2.46609,5.38097 c -4.32167,9.4298 -18.80166,40.05047 -19.56188,41.36728 -2.68268,4.64691 -12.74399,15.3876 -17.56195,18.74781 -2.64603,1.84542 -5.31536,3.27687 -7.09675,3.80571 -1.08493,0.32207 -1.1165,0.36287 -0.88886,1.14979 0.13692,0.47331 0.1268,1.84325 -0.0241,3.26285 -0.14305,1.34582 -0.26251,3.83972 -0.2655,5.54199 -0.004,2.83535 -0.27476,4.47249 -3.21534,19.51218 l -3.20989,16.41715 0.23968,3.34241 0.23969,3.34241 -1.74333,1.77113 -1.74333,1.77112 -0.55902,2.67761 -0.55903,2.67758 0.58053,0.82115 c 0.31928,0.45161 2.61332,3.60666 5.09782,7.0112 6.98264,9.56834 8.76125,12.57824 13.74729,23.26411 l 2.58176,5.53317 0.73899,11.03448 0.73896,11.03447 -0.79428,20.31958 -0.79429,20.31958 -1.60901,4.28709 c -0.88495,2.35787 -1.51486,4.37944 -1.39976,4.49235 0.11507,0.11289 4.85362,2.42777 10.53009,5.14415 7.01608,3.35742 11.23167,5.54556 13.16531,6.83358 1.56445,1.04208 3.88273,2.57439 5.15176,3.40516 7.67455,5.0241 16.05328,13.6541 22.7408,23.42279 7.67543,11.21173 14.76408,26.69186 18.67283,40.77749 l 0.47221,1.70163 4.23409,2.91972 4.2341,2.91972 1.72417,6.81683 1.72417,6.81683 6.69071,14.9997 6.69069,14.9997 14.95247,15.00869 c 8.22383,8.25478 15.08969,15.26355 15.25742,15.57502 0.68416,1.27055 0.66283,3.95292 -0.0808,10.15847 l -0.7369,6.14954 1.08137,1.11706 c 0.59478,0.61438 5.79187,8.26257 11.54912,16.99595 5.81054,8.8142 10.96887,16.35782 11.59407,16.95541 0.61948,0.5921 1.36097,1.52722 1.64776,2.07809 0.28682,0.55084 4.86451,10.54241 10.17266,22.20351 5.30816,11.66107 10.24518,22.36223 10.97117,23.78029 1.86127,3.63569 2.28205,5.21137 2.29402,8.59072 0.0155,4.32236 -1.35936,9.19137 -3.6264,12.84434 -0.44689,0.72009 -1.26064,2.45439 -1.80832,3.854 -1.02728,2.62522 -6.36638,17.7357 -7.69844,21.78775 -0.41361,1.2582 -2.22866,5.64628 -4.03339,9.7513 l -3.28136,7.46369 -3.7958,4.40254 -3.79579,4.40251 0.96341,4.28181 c 0.89548,3.98002 2.03297,7.01392 2.91593,7.77737 0.17323,0.14977 0.54247,0.96696 0.82057,1.816 0.44611,1.36189 0.48449,2.07509 0.32597,6.0555 -0.0989,2.4815 -0.36714,10.31436 -0.59625,17.40637 l -0.41648,12.89457 -2.40987,2.58061 c -3.75958,4.02597 -4.23809,4.42073 -13.31315,10.9828 l -8.55066,6.18289 -19.91351,7.02352 c -10.95242,3.86296 -19.97209,7.08166 -20.04372,7.15268 -0.0716,0.071 -0.25593,1.01709 -0.40955,2.10233 l -0.27926,1.97318 -6.23251,1.88268 -6.2325,1.88269 -7.64989,10.22451 -7.64986,10.2246 -9.76646,8.2581 -9.76643,8.2581 -2.44602,0.1519 c -1.34534,0.084 -12.76791,0.3985 -25.38353,0.6998 -22.75619,0.5436 -23.27329,0.5441 -65.41934,0.062 -38.12275,-0.4364 -48.06653,-0.4536 -96.9075,-0.1687 -29.9341,0.1746 -86.796,0.3963 -126.35977,0.4927 l -71.93413,0.1752 -17.86503,-12.9338 z m 377.98896,8.3321 c 2.67403,-7.4479 4.09971,-17.8666 3.48927,-25.4992 -0.83951,-10.49686 -4.07011,-19.13042 -10.14672,-27.11637 -1.9071,-2.50633 -6.27014,-6.90569 -9.0007,-9.07566 -2.26197,-1.79754 -7.97236,-5.59211 -8.41553,-5.59211 -0.17129,0 -0.69897,-0.59298 -1.17264,-1.31773 -3.89421,-5.95851 -12.96506,-8.98276 -24.2823,-8.09578 -5.02576,0.3939 -9.2553,1.16527 -11.86914,2.16467 -7.89232,3.01763 -18.43984,13.84439 -29.34825,30.12519 -3.61488,5.39521 -8.98513,14.20645 -10.38841,17.04479 l -0.95376,1.9291 -1.51711,13.2871 c -0.83441,7.308 -1.48086,13.3206 -1.43656,13.3615 0.0442,0.041 9.17529,0.1637 20.29115,0.2729 l 20.21064,0.1986 -1.61635,-1.8622 c -7.05847,-8.1316 -16.83353,-19.551 -16.90465,-19.7483 -0.12256,-0.3398 0.43,-0.4252 7.07696,-1.0942 l 5.90403,-0.5942 0,-1.0708 c 0,-1.4814 1.23727,-6.81096 2.22686,-9.59213 2.93823,-8.25766 7.46984,-13.01748 13.35988,-14.03267 1.7129,-0.29524 4.82811,-0.21782 6.26495,0.15568 0.48203,0.12531 0.93821,-0.74829 4.06897,-7.79238 l 3.52611,-7.93349 0.77302,0.72862 c 2.26718,2.13693 5.362,7.92037 7.26267,13.57206 l 1.11134,3.30458 2.17496,1.45744 c 6.49805,4.35432 10.31599,10.42403 10.59056,16.83669 l 0.0804,1.8771 6.37906,0.7907 c 3.50849,0.4349 6.41002,0.8119 6.44785,0.8377 0.17905,0.1221 -12.00295,21.5924 -12.94812,22.8204 l -1.07876,1.4018 4.53601,0.1473 c 2.4948,0.081 6.79582,0.1416 9.55782,0.1346 l 5.02182,-0.013 0.72471,-2.0186 z m -55.03636,-0.3363 c -0.20275,-3.4216 -0.6953,-18.5549 -0.60656,-18.6351 0.047,-0.043 2.93203,-0.1656 6.41126,-0.2737 l 6.32584,-0.1965 -0.14624,2.6561 c -0.30554,5.549 -0.45318,14.3632 -0.24056,14.3601 1.26018,-0.019 9.15491,-0.8246 9.27826,-0.9468 0.0896,-0.089 0.33377,-3.6356 0.54254,-7.8816 0.20875,-4.2461 0.39421,-7.7393 0.41209,-7.7629 0.062,-0.081 8.61014,0.9219 8.69375,1.0204 0.0461,0.054 0.53926,4.0956 1.09573,8.9804 0.55647,4.8847 1.09633,9.1641 1.19973,9.5096 0.15084,0.504 1.24337,-1.5691 5.5313,-10.4962 4.57832,-9.5317 5.27679,-11.1501 4.87848,-11.3039 -0.25567,-0.099 -4.00281,-0.3163 -8.32698,-0.4836 -4.32419,-0.1672 -7.89976,-0.3414 -7.94571,-0.387 -0.0459,-0.046 -0.52183,-2.3713 -1.05751,-5.16819 -0.87341,-4.56047 -1.29337,-5.97428 -4.06879,-13.69763 -3.00348,-8.35806 -5.7984,-15.47545 -6.0751,-15.47053 -0.0747,0.003 -3.5923,7.73857 -7.81703,17.19381 l -7.68135,17.19144 -9.421,2.3334 c -8.41671,2.0848 -9.5454,2.3059 -10.58771,2.0736 -0.64168,-0.1429 -1.12986,-0.1699 -1.08479,-0.06 0.045,0.1099 2.76927,4.5179 6.05381,9.7956 l 5.97189,9.5958 4.39013,0 4.39012,0 -0.1156,-1.9512 z m -249.99111,1.389 2.93671,-0.2931 4.33755,-3.4075 4.33754,-3.4076 1.47606,-3.6333 c 1.20871,-2.9752 1.68197,-3.8256 2.61293,-4.6954 0.62528,-0.5841 3.85532,-3.6998 7.17786,-6.9237 l 6.04095,-5.86173 0.0751,-13.12667 0.0751,-13.12666 1.94398,-11.50867 1.94402,-11.50862 -10.74087,-13.94161 -10.74089,-13.94157 -17.06717,-3.61272 c -9.38695,-1.98699 -17.06718,-3.7051 -17.06718,-3.81803 0,-0.31021 1.81325,-0.25603 11.66077,0.34833 4.96175,0.3045 9.3188,0.51645 9.68234,0.47099 0.62571,-0.0783 0.37255,-0.57831 -4.74258,-9.36779 l -5.40356,-9.28509 -1.45888,-0.32897 c -2.46702,-0.55627 -10.1131,-1.68954 -11.39916,-1.68954 -0.66896,0 -1.33234,0.11085 -1.47417,0.24634 -0.14184,0.1355 -0.51945,0.28689 -0.83915,0.33641 -0.34845,0.054 -1.78627,1.49138 -3.5899,3.58882 l -3.00865,3.49874 -0.007,3.20611 -0.007,3.20612 5.08553,8.62557 5.08552,8.6256 2.09292,22.75196 c 2.12071,23.0541 2.31314,25.62158 1.88578,25.16069 -0.1304,-0.14062 -1.99305,-9.41983 -4.13922,-20.62049 -2.14617,-11.20067 -3.9217,-20.34449 -3.94562,-20.31958 -0.0239,0.0248 -1.04992,10.21849 -2.28002,22.65245 -1.80833,18.27874 -2.3198,22.69043 -2.6714,23.04187 -0.54874,0.54846 -35.01204,21.26992 -35.65545,21.43823 -0.26126,0.0683 -0.46886,0.0193 -0.46132,-0.10898 0.008,-0.12827 7.68553,-5.74258 17.06217,-12.47625 l 17.04845,-12.24304 0.20017,-33.04766 c 0.19028,-31.41302 0.17629,-33.08382 -0.28262,-33.77878 -0.26553,-0.40214 -3.10982,-3.67951 -6.32066,-7.28308 l -5.83788,-6.55191 -19.79369,-9.81316 c -10.88654,-5.39719 -19.85487,-9.75248 -19.92963,-9.67835 -0.0748,0.0741 0.50077,8.16504 1.27896,17.97986 l 1.41488,17.84509 -0.19339,13.04974 -0.19338,13.04975 -6.35353,12.27381 -6.35353,12.27382 -4.81081,4.01198 c -2.64594,2.20661 -7.05047,5.87782 -9.78784,8.1583 l -4.97702,4.14628 -6.0195,1.44441 c -3.31072,0.79445 -6.23326,1.51037 -6.49452,1.59095 -1.04105,0.32108 -0.34922,-0.49736 2.2239,-2.63089 1.48442,-1.2308 2.70595,-2.30297 2.7145,-2.38258 0.0257,-0.23929 -23.458805,-13.14088 -23.538741,-12.93141 -0.04064,0.1065 1.085423,3.1789 2.502382,6.82751 l 2.576269,6.63388 4.78467,7.74681 c 2.63156,4.26076 4.81576,7.77907 4.85376,7.81844 0.0381,0.0394 6.47964,0.91492 14.31476,1.94557 l 14.24565,1.87395 15.85824,-3.48768 c 8.72203,-1.91822 16.14333,-3.55552 16.49176,-3.63844 1.37294,-0.32673 0.14519,0.49014 -3.30162,2.19669 -1.96637,0.97356 -6.05403,3.04078 -9.08369,4.59382 l -5.50846,2.82367 4.55839,2.78749 c 4.38719,2.6828 5.07134,3.2326 18.21746,14.6405 l 13.65906,11.8531 25.04321,0 c 16.07849,0 26.09447,-0.1051 27.97992,-0.2931 z m 325.91265,0.024 4.23708,0 17.28484,-18.1333 17.28483,-18.1333 4.57295,-3.01206 4.57297,-3.01209 0.2217,-14.71671 c 0.38527,-25.57279 0.34252,-29.33759 -0.36974,-32.54649 -2.10738,-9.49466 -6.54962,-17.39314 -14.17306,-25.20035 -6.24109,-6.3915 -14.02037,-11.99324 -22.3282,-16.0782 -2.6684,-1.31205 -3.42779,-1.85037 -2.61025,-1.85037 0.46183,0 5.44953,1.79805 8.37856,3.02045 19.9325,8.31865 32.04918,20.93563 36.34042,37.84101 1.38829,5.4691 1.77207,8.87634 1.76355,15.65657 -0.008,6.66217 -0.33109,10.01088 -1.8692,19.39667 -0.89567,5.46554 -1.15,8.56125 -0.78156,9.51317 0.13572,0.35069 0.66554,0.42571 3.00554,0.42571 l 2.84078,0 10.77051,-3.79098 c 5.9238,-2.08503 12.93781,-4.63806 15.58672,-5.67339 l 4.8162,-1.8824 -0.14751,-5.69751 -0.14747,-5.69749 2.33728,4.50799 c 1.2855,2.47938 2.42804,4.50798 2.53895,4.50798 0.18174,0 19.09184,-16.36041 20.16425,-17.44543 0.38728,-0.39185 0.54592,-2.65642 1.19294,-17.02875 l 0.74625,-16.57682 -1.80699,-2.37518 c -1.72989,-2.27385 -1.80142,-2.42777 -1.67696,-3.60819 0.0715,-0.67816 0.19929,-2.45337 0.28394,-3.94491 l 0.15385,-2.71186 -5.46259,-9.26458 c -3.00444,-5.09551 -5.80069,-9.80956 -6.21392,-10.47567 -0.41323,-0.66611 -1.52511,-3.45163 -2.47084,-6.19007 l -1.7195,-4.97897 -5.85183,-6.20342 -5.8518,-6.20342 -19.00147,-7.05189 -19.00147,-7.05186 -10.63151,-0.94582 -10.63149,-0.94582 -0.97214,0.56868 c -1.29707,0.75877 -11.13586,14.78222 -14.03351,20.0023 -1.85585,3.34329 -2.57326,5.10576 -6.03608,14.82872 -2.16145,6.06897 -4.20956,11.77443 -4.55141,12.6788 l -0.62147,1.6443 -9.60799,1.17713 c -9.12939,1.11853 -9.64227,1.21089 -10.29605,1.85444 -1.40475,1.38273 -2.6605,5.58959 -3.57633,11.98089 -0.47593,3.32139 -0.659,5.24175 -1.25067,13.12025 -0.075,0.99916 -0.0964,1.81665 -0.0475,1.81665 0.0489,0 2.64551,-3.74445 5.77019,-8.32099 3.12466,-4.57654 5.76651,-8.24011 5.87072,-8.14129 0.10419,0.0988 0.32689,1.54329 0.4948,3.2099 0.809,8.03012 -1.69547,14.3476 -7.24425,18.27334 -0.96878,0.6854 -2.45431,1.5248 -3.30118,1.86531 l -1.53975,0.61911 -0.21444,1.5627 c -0.11795,0.85947 -0.55091,4.49006 -0.96215,8.06797 l -0.74771,6.50528 3.19341,5.35999 3.19338,5.36001 -0.44705,9.399 -0.44707,9.39898 1.93191,4.03428 1.9319,4.03429 1.14455,10.8999 1.14456,10.89991 -0.45631,8.7468 c -0.25098,4.8108 -0.53212,9.5842 -0.62476,10.6076 l -0.16847,1.8606 5.9435,-0.1779 c 3.26891,-0.098 7.85016,-0.1782 10.18058,-0.1786 z m 6.02963,-101.67625 c -3.31112,-6.91441 -5.9111,-12.61062 -5.77768,-12.65826 0.4452,-0.15897 2.81865,1.63598 4.74021,3.58494 3.54743,3.59794 6.15863,9.1921 7.0609,15.12708 0.42539,2.7981 0.54044,6.54549 0.20039,6.52824 -0.11193,-0.005 -2.91269,-5.66758 -6.22382,-12.582 z M 440.35993,1026.8092 c 0.005,-0.1851 0.48318,-6.392 1.06416,-13.7931 l 1.05635,-13.45669 1.75851,-4.30614 c 0.96717,-2.36837 2.09793,-5.51724 2.51278,-6.99747 2.56674,-9.15856 7.58452,-17.84504 14.36103,-24.86094 8.08068,-8.36615 20.00329,-14.28139 33.80069,-16.76968 4.13407,-0.74555 12.23651,-0.82382 15.8798,-0.15338 9.43059,1.73543 17.17858,6.30792 22.2404,13.12529 0.6881,0.92671 3.66108,4.70593 6.60666,8.39828 l 5.35559,6.71338 0.42258,-7.75969 0.42257,-7.75968 -3.03635,-4.97897 -3.03636,-4.97897 0.51866,-12.5147 c 0.28525,-6.8831 0.67705,-16.99579 0.87065,-22.47266 l 0.35199,-9.95794 1.7141,-6.32464 1.71409,-6.32464 -0.29867,-10.47122 c -0.16426,-5.75919 -0.39551,-10.56708 -0.51386,-10.6842 -0.11835,-0.11713 -1.91497,0.87081 -3.99248,2.19537 -3.671,2.3406 -4.23049,2.63191 -4.23049,2.20292 0,-0.2486 1.42633,-2.38722 3.56839,-5.35038 l 1.5843,-2.19161 3.56174,-11.5342 c 1.95895,-6.34379 3.62573,-11.77639 3.70396,-12.07243 0.0782,-0.29605 2.09573,-5.0799 4.48331,-10.63078 l 4.34102,-10.09251 5.4243,-22.47265 c 2.98337,-12.35995 5.42145,-22.83597 5.41794,-23.28004 -0.008,-0.98345 -2.899,-25.08858 -3.43788,-28.66273 -0.87132,-5.77894 -5.15708,-28.23711 -5.32885,-27.92415 -0.10206,0.18588 -1.26002,5.09316 -2.57328,10.90501 -1.31328,5.81189 -2.4683,10.47463 -2.56673,10.36165 -0.0983,-0.11296 -0.44971,-3.59649 -0.78069,-7.74115 l -0.60174,-7.53573 -2.97515,-11.57275 c -1.63635,-6.36501 -3.00568,-11.67183 -3.04294,-11.79297 -0.0373,-0.12111 -0.0203,2.2779 0.0377,5.33111 0.14729,7.74607 -0.54656,12.72442 -2.58509,18.54816 -1.92271,5.49278 -2.34213,6.08885 -11.97829,17.02342 l -3.3407,3.79087 -5.803,2.25447 -5.80296,2.2545 -0.18493,1.68093 -0.18497,1.6809 -1.80077,0.55251 c -0.99044,0.30388 -6.40879,1.94763 -12.04078,3.65275 l -10.23996,3.10023 -6.7049,6.71007 c -3.68769,3.69054 -6.81889,6.71006 -6.95819,6.71006 -0.31309,0 -3.04556,-2.13681 -3.04556,-2.38165 0,-0.0976 3.38315,-4.84308 7.51812,-10.5455 l 7.51815,-10.3681 5.03639,-4.39829 5.03643,-4.39828 0,-3.74965 c 0,-3.70169 0.0226,-3.8411 1.76441,-10.9043 2.04918,-8.30936 2.00092,-7.53267 1.36865,-22.01784 l -0.3759,-8.61227 -1.33352,-5.01966 -1.33352,-5.01969 -3.20506,-5.47652 c -1.76277,-3.01212 -3.2434,-5.52157 -3.29027,-5.57661 -0.0469,-0.0551 -1.40383,0.98713 -3.01548,2.31594 -12.66568,10.44285 -24.54993,17.07397 -34.14698,19.05321 -4.06009,0.83732 -9.3071,0.5644 -11.63654,-0.60529 l -0.77858,-0.39094 1.05003,-1.08522 c 0.57751,-0.59686 5.87503,-5.13703 11.77228,-10.08925 l 10.72226,-9.00406 4.10453,-8.98564 4.10451,-8.98563 1.01858,-9.54141 1.01858,-9.54143 -3.06569,-5.33842 c -1.68614,-2.93614 -3.20902,-5.55034 -3.38421,-5.80938 -0.28253,-0.4177 -0.86791,0.047 -5.17908,4.11109 -4.55939,4.29814 -5.4156,4.96274 -13.8184,10.72594 l -8.95784,6.14387 -20.76589,5.55027 c -11.42125,3.05268 -23.14787,6.15615 -26.05916,6.89658 l -5.29327,1.34628 -15.06544,0.54444 c -8.28601,0.29943 -20.09312,0.72956 -26.23799,0.95587 l -11.17254,0.41146 -4.70726,-1.37167 c -9.56701,-2.78779 -12.09198,-3.5436 -14.47945,-4.33431 l -2.44305,-0.8091 -3.52732,-3.87813 c -3.58854,-3.94539 -3.95665,-4.42545 -3.39344,-4.42545 0.17484,0 3.79127,1.99873 8.0365,4.44157 l 7.71862,4.4416 10.24108,0.89545 10.24112,0.8955 6.24333,-0.50278 c 3.43384,-0.27653 15.46584,-1.2112 26.73779,-2.07709 l 20.49443,-1.5743 13.29621,-2.3853 13.29616,-2.38527 16.42756,-9.03826 16.42754,-9.03826 3.6182,-4.14929 c 1.99002,-2.28211 3.98942,-4.6086 4.44306,-5.17002 l 0.82483,-1.02074 -2.50833,-5.57303 c -1.3796,-3.06516 -2.59221,-5.72862 -2.69468,-5.91876 -0.12362,-0.22939 -0.47721,0.0993 -1.05057,0.97658 -3.30862,5.06248 -13.72083,11.04938 -30.72755,17.66791 -6.51823,2.53669 -14.43028,5.28864 -21.68523,7.54241 -4.60234,1.42975 -6.18734,2.04844 -7.64812,2.98537 l -1.84269,1.18185 -7.17313,0 c -6.36354,0 -9.9426,-0.21267 -31.71206,-1.88429 -32.91595,-2.52754 -30.32347,-2.28637 -31.01187,-2.88493 -3.95543,-3.43922 -7.25693,-6.24292 -9.20355,-7.81579 -1.30649,-1.05568 -4.82603,-4.19668 -7.82117,-6.98006 l -5.44574,-5.06065 -4.03616,-5.92093 c -3.27659,-4.80671 -4.96834,-6.9592 -8.98978,-11.43818 -13.45291,-14.9835 -12.83395,-14.22034 -16.66378,-20.54557 -1.94086,-3.2055 -3.61592,-5.82846 -3.72236,-5.82884 -0.10644,0 -1.37036,1.3915 -2.80874,3.09304 l -2.61522,3.09374 1.06844,1.27968 c 14.06902,16.85091 13.68741,16.3431 18.45716,24.55975 2.56803,4.42385 7.03883,13.2714 8.84663,17.50719 4.85186,11.3682 7.44388,20.98057 8.08358,29.97768 0.26021,3.65994 0.23472,4.36192 -0.26203,7.21881 -0.54929,3.15879 -0.54931,3.16742 -0.0134,4.70983 3.16124,9.09478 0.56689,19.23847 -7.5462,29.505 -2.19993,2.78387 -8.76268,9.13827 -11.7904,11.41611 l -2.61365,1.96634 -0.19255,9.06813 c -0.20838,9.81619 -0.47131,12.18785 -2.02967,18.30781 -3.35936,13.19289 -9.35196,23.69426 -18.57167,32.54481 -9.54386,9.16173 -22.72094,15.86695 -36.9109,18.78229 -4.89461,1.00561 -7.12578,1.07737 -12.91678,0.41551 -2.75238,-0.31456 -5.05092,-0.61815 -5.10789,-0.67461 -0.0569,-0.0565 0.0286,-1.04542 0.19031,-2.19763 0.19894,-1.41807 0.20482,-2.18327 0.0182,-2.36827 -0.38629,-0.383 -0.34399,-0.78752 0.066,-0.63153 0.18794,0.0715 3.80789,-1.39914 8.04433,-3.26809 l 7.70263,-3.3981 7.9939,-17.33034 7.9939,-17.33035 -1.43757,-2.04727 c -0.79065,-1.126 -1.77643,-2.5317 -2.19059,-3.1238 l -0.75304,-1.07653 -0.82076,-12.63905 -0.82077,-12.63905 -2.09295,-3.23983 c -6.60894,-10.2306 -5.83536,-9.25504 -9.57387,-12.07354 -16.62178,-12.5314 -30.11022,-27.4435 -39.23685,-43.37819 -9.75655,-17.03451 -15.12369,-37.41413 -14.38707,-54.62937 0.10127,-2.36576 0.11795,-4.23586 0.0372,-4.15577 -0.0808,0.0801 -2.57135,4.51964 -5.53459,9.86566 l -5.38771,9.72002 -7.95946,23.23303 -7.95947,23.23304 -1.59952,1.74936 c -0.87974,0.96216 -4.97829,5.49662 -9.10787,10.07663 l -7.50834,8.32724 1.99015,20.73918 1.99014,20.73916 10.29584,27.95061 c 5.6627,15.37283 10.24674,27.99928 10.18674,28.05879 -0.06,0.0595 -2.48483,-1.63886 -5.38851,-3.77411 l -5.27942,-3.88228 -1.44934,-4.93345 c -10.30415,-35.07459 -16.03836,-60.68851 -16.03836,-71.64106 l 0,-2.65713 -6.14415,7.60818 -6.14413,7.60823 0.45596,1.43415 c 0.36899,1.16061 0.39329,1.55061 0.12737,2.04475 -0.18073,0.33582 -3.98066,6.71186 -8.44428,14.16901 -7.306418,12.20642 -8.644125,14.63457 -13.415063,24.35053 -2.914664,5.93563 -5.698464,11.46091 -6.186236,12.27839 -0.487772,0.81746 -3.228325,5.28863 -6.090109,9.93591 -2.861795,4.64732 -5.165312,8.4873 -5.118933,8.53326 0.04637,0.046 2.306021,-1.30386 5.021437,-2.99968 2.715416,-1.69581 5.031451,-3.07471 5.146765,-3.06422 0.115302,0.0105 1.125795,1.09191 2.245517,2.40312 1.698849,1.98938 2.17069,2.38759 2.85022,2.40551 0.736823,0.0193 2.557362,0.60163 7.736314,2.47389 0.970436,0.3508 1.829038,0.72277 1.908021,0.82661 0.07893,0.10382 7.896727,2.28252 17.372777,4.84152 l 17.22918,4.65273 16.01552,8.70999 c 8.80854,4.7905 17.35919,9.59152 19.00147,10.66891 3.43054,2.25058 6.3383,4.81865 8.1719,7.21722 1.26889,1.65988 3.3647,5.68442 3.3647,6.4612 0,0.2406 2.32953,1.81996 5.6976,3.86276 3.13368,1.90065 5.69888,3.53106 5.70044,3.62313 0.001,0.092 -1.77613,0.6347 -3.95044,1.2058 -2.1743,0.57113 -4.04824,1.10132 -4.1643,1.17827 -0.17515,0.11607 -1.98474,12.99662 -1.83779,13.08117 0.17731,0.10204 42.93284,3.02114 43.05453,2.93948 0.0844,-0.0566 6.38319,-12.51489 13.99735,-27.68511 7.61415,-15.1702 13.93554,-27.59152 14.04751,-27.60296 0.11193,-0.0116 0.20359,0.15392 0.20359,0.36745 0,0.50867 -21.14454,61.85296 -21.41326,62.12393 -0.11331,0.11424 -3.77962,-0.41129 -8.14737,-1.16788 -4.36774,-0.75658 -7.97494,-1.33453 -8.01598,-1.28428 -0.0872,0.10677 5.85983,40.68082 5.98504,40.83321 0.0464,0.0565 1.95149,-0.26932 4.23351,-0.72405 5.76621,-1.14899 8.86681,-1.4717 14.05703,-1.46309 6.93932,0.0115 11.24434,0.88628 15.80433,3.21151 7.08903,3.61481 10.79773,10.50916 10.79773,20.0726 l 0,3.35233 5.63257,2.48829 c 3.09792,1.36855 5.768,2.62651 5.93351,2.79547 0.1655,0.16896 0.63386,2.36606 1.04082,4.88246 0.49852,3.0826 0.96416,5.05818 1.42728,6.05551 4.38595,9.44491 5.51018,12.01341 5.51018,12.58885 0,0.37175 -0.50497,3.29271 -1.12214,6.49096 -1.0811,5.60226 -1.11096,5.89943 -0.81595,8.12132 l 0.30623,2.30628 -1.64534,4.15292 -1.64535,4.15293 0.1691,3.63329 c 0.0931,1.99832 0.84572,8.70868 1.67272,14.91192 1.23116,9.23508 1.43744,11.31738 1.13852,11.49238 -0.20082,0.1176 -4.07614,2.9144 -8.61189,6.2151 l -8.24676,6.0013 -2.00769,5.6222 c -1.10426,3.0922 -1.97392,5.6363 -1.9326,5.6537 0.0413,0.017 19.13087,-0.056 42.42124,-0.1619 40.16789,-0.1834 44.65004,-0.1542 87.13532,0.568 55.61842,0.9454 52.25217,0.9135 52.26189,0.4963 z M 127.0288,967.9391 c 10.24142,-2.43434 18.7096,-13.28548 24.47082,-31.35686 l 1.11541,-3.49874 0.32638,-17.03929 0.32639,-17.03927 -1.23768,-10.35172 c -0.68073,-5.69346 -1.30304,-10.41651 -1.38292,-10.49571 -0.0798,-0.0791 -1.99793,0.77598 -4.26234,1.90043 l -4.11712,2.04439 -15.177,-2.35406 -15.177,-2.35408 -9.71214,0.46818 c -10.98404,0.52953 -11.962121,0.54799 -11.598711,0.21908 0.141831,-0.12838 4.288903,-1.04849 9.215718,-2.04472 l 8.957833,-1.81134 15.02593,-0.90801 15.02593,-0.90801 2.75402,-1.88016 c 1.51471,-1.03411 4.16523,-2.82396 5.89006,-3.97747 2.9435,-1.96849 3.33006,-2.33689 6.29547,-5.99971 1.73768,-2.14634 6.64499,-8.20185 10.90515,-13.45667 8.22341,-10.14343 9.44877,-11.98084 10.48322,-15.71923 0.46425,-1.67778 0.56202,-2.66459 0.48861,-4.93131 -0.0853,-2.63489 -0.13725,-2.86439 -0.73944,-3.26992 -4.27022,-2.87564 -30.83005,-17.72389 -46.04168,-25.73958 -11.79971,-6.21779 -33.449825,-16.81594 -34.351932,-16.81594 -0.113158,0 -3.470191,6.02522 -7.460072,13.38939 -30.824229,56.89256 -30.83778,56.91705 -32.547968,58.81931 -2.295198,2.55298 -5.936837,7.4331 -7.999421,10.71997 -11.782173,18.77559 -13.881178,36.68756 -6.130033,52.31091 5.397174,10.87865 15.971156,20.99075 30.399217,29.07137 1.791573,1.00339 6.341741,3.63896 10.111493,5.8568 l 6.854101,4.03248 -5.6e-5,1.24298 -5.6e-5,1.24294 13.986727,-0.0721 13.98673,-0.0721 -0.71829,1.41774 c -0.39506,0.77976 -0.74588,1.44955 -0.77957,1.48842 -0.0337,0.0389 -1.9783,0.41713 -4.32136,0.84058 -2.34305,0.42342 -4.32741,0.8366 -4.40968,0.91817 -0.41445,0.41092 5.17125,3.69033 8.58617,5.04101 3.96387,1.56783 9.08903,1.99169 12.95909,1.0718 z m 128.2445,-51.9657 c 5.02659,-11.39899 0.95717,-18.17477 -11.80131,-19.64976 -2.62526,-0.3035 -7.93721,-0.20745 -10.26876,0.1857 l -0.98291,0.16573 1.04966,1.78708 c 0.61768,1.05161 4.10899,5.22783 8.48334,10.14757 l 7.43366,8.36053 2.27177,0.69711 c 1.24947,0.3834 2.39391,0.6693 2.54321,0.63534 0.1493,-0.0339 0.72141,-1.08216 1.27134,-2.3293 z m -45.13056,-22.78606 c 0.0112,-1.51567 -0.41154,-7.08673 -0.93911,-12.38013 -1.5243,-15.2941 -2.82355,-27.84359 -2.99122,-28.8924 l -0.15459,-0.96689 -14.03087,-0.17812 c -7.71698,-0.0979 -15.4967,-0.24596 -17.28826,-0.32893 l -3.2574,-0.15082 -7.32913,8.12398 c -4.03103,4.46821 -7.72528,8.58178 -8.20945,9.14131 l -0.8803,1.01728 22.09975,11.86832 c 12.15485,6.52757 22.27232,11.80263 22.48324,11.72238 0.21232,-0.0808 2.55432,1.22197 5.24689,2.91859 l 4.8634,3.06449 0.18346,-1.10164 c 0.10093,-0.60593 0.19252,-2.34177 0.20359,-3.85742 z m 475.98024,0.62674 4.04506,-4.40073 7.97246,-19.74604 7.97242,-19.74606 -0.27729,-1.80093 c -0.4106,-2.66654 -0.37491,-3.15296 0.22012,-2.99869 0.62905,0.16313 2.08022,-1.42764 2.85181,-3.12614 0.69365,-1.52693 0.92476,-5.62861 0.46614,-8.27239 -0.52186,-3.00826 -2.05832,-7.14622 -4.62135,-12.44603 -1.32923,-2.74863 -2.89682,-6.10122 -3.48352,-7.4502 -0.58668,-1.34895 -5.29011,-10.73498 -10.45202,-20.85785 l -9.38531,-18.40515 -9.44897,-11.99544 c -5.19693,-6.59749 -9.55459,-12.04744 -9.68367,-12.11101 -0.1291,-0.0636 -2.64714,5.96957 -5.59565,13.40694 -4.92981,12.43489 -5.51953,13.76612 -7.33238,16.55171 -1.08428,1.66608 -2.78049,4.2897 -3.76935,5.83029 -1.70814,2.6612 -2.36738,3.33869 -13.19883,13.56436 -6.27048,5.91981 -11.75297,11.09653 -12.18336,11.50384 l -0.78245,0.74058 2.52199,3.59245 c 1.3871,1.97584 2.60127,3.68416 2.69818,3.79626 0.0969,0.11209 0.74764,-0.81372 1.44612,-2.05737 1.76485,-3.14242 4.23208,-5.25908 8.74257,-7.50029 4.39838,-2.18553 8.56999,-3.03257 14.79401,-3.00396 4.33016,0.02 7.15391,0.35563 10.70398,1.27258 2.49568,0.64456 1.65386,0.85775 -3.4432,0.87193 -6.94262,0.0193 -11.55617,1.01595 -17.56677,3.79487 -5.16919,2.38987 -11.80969,7.50059 -14.86027,11.43683 -1.50247,1.93867 -8.53006,17.77686 -8.08401,18.21906 0.068,0.0675 7.30229,2.22192 16.07619,4.78773 8.77391,2.56581 16.19685,4.77219 16.49545,4.90305 0.56692,0.24849 5.90845,3.90682 11.2831,7.72766 l 3.13961,2.23194 2.45697,4.25834 c 1.90683,3.30483 2.89772,5.43343 4.42541,9.50642 1.7466,4.65654 2.50796,6.21052 6.75437,13.78623 2.63228,4.69597 4.84702,8.53764 4.92167,8.53702 0.0747,0 1.956,-1.98144 4.18077,-4.40181 z m -119.06904,-4.3105 c 0.0498,-0.0495 1.6831,-5.62935 3.62941,-12.39984 l 3.53876,-12.30992 5.95818,-7.87469 c 3.27699,-4.33106 7.28617,-9.97847 8.90927,-12.5498 l 2.95112,-4.67515 11.22912,-0.0702 11.22908,-0.0702 1.41802,-5.64965 1.41805,-5.64962 2.62543,-3.5294 c 2.40564,-3.23387 2.59577,-3.57742 2.2712,-4.10353 -0.6315,-1.02357 -5.19124,-7.15174 -5.43033,-7.29825 -0.12763,-0.0782 -3.5711,1.20412 -7.65221,2.84963 -14.81402,5.97305 -21.12325,7.96246 -44.47305,14.02313 -2.9113,0.75564 -5.43899,1.50631 -5.6171,1.66811 -0.17811,0.16183 -1.25236,2.35309 -2.38718,4.86949 -1.46489,3.2482 -2.76771,6.82157 -4.49174,12.31975 l -2.42836,7.74448 -1.08845,8.57736 c -1.04688,8.24938 -1.08849,8.87641 -1.08849,16.39683 l 0,7.81946 1.56083,0.11745 c 1.68766,0.12698 17.76912,-0.0574 17.91844,-0.20546 z m 9.02293,-66.37807 c 21.45942,-6.51965 27.147,-8.42283 29.72372,-9.94622 1.19439,-0.70614 4.61465,-2.23519 7.60059,-3.39793 l 5.429,-2.11407 6.61389,-4.89731 6.6139,-4.89732 3.67418,-5.06063 c 3.57165,-4.9194 3.77222,-5.27063 7.18633,-12.58543 1.93165,-4.13865 4.73557,-10.07304 6.23095,-13.18754 1.49537,-3.11452 4.72155,-10.71959 7.16926,-16.90018 l 4.45045,-11.23746 0,-4.23895 0,-4.23895 -11.06158,-10.93257 c -8.57031,-8.47037 -12.03973,-11.70387 -15.40476,-14.35725 l -4.34319,-3.42464 -7.15523,-14.9771 -7.15524,-14.97708 -1.40969,-7.2776 -1.40969,-7.27761 -3.69163,-4.38273 -3.69162,-4.38271 -3.65389,-8.65925 c -2.00965,-4.7626 -3.98306,-9.52785 -4.38538,-10.58946 -1.05099,-2.7734 -7.55457,-15.70739 -10.34027,-20.56421 -4.44002,-7.74113 -7.78992,-12.46155 -11.30096,-15.9244 -1.16314,-1.14719 -2.22087,-2.0858 -2.35049,-2.0858 -0.12964,0 -0.57397,0.75694 -0.98739,1.68209 l -0.75167,1.68209 -0.8162,-2.83727 -0.81622,-2.83725 -8.58804,-4.36075 c -4.72344,-2.3984 -12.17905,-6.18944 -16.56801,-8.42455 l -7.9799,-4.06378 0.14959,1.57301 c 0.19137,2.01247 0.7508,3.66201 2.27741,6.71538 1.71865,3.43748 4.23388,6.6687 8.35741,10.73647 3.74541,3.69474 6.15501,5.67256 11.07715,9.09225 2.98709,2.07528 3.06209,2.15422 8.06461,8.49094 l 5.04947,6.39617 3.8958,8.7336 c 2.14265,4.80347 4.49405,9.81463 5.22532,11.13589 3.29119,5.94661 5.14722,11.15294 6.38742,17.91729 0.665,3.62709 0.66783,12.52596 0.006,16.44083 -1.07994,6.38053 -2.824,11.63919 -5.74938,17.33543 -1.06427,2.07233 -2.21839,4.5248 -2.56472,5.44995 -0.34628,0.92514 -0.69547,1.68208 -0.77596,1.68208 -0.0805,0 -1.02618,-0.6566 -2.10159,-1.45908 l -1.95524,-1.45911 -0.16814,-2.10691 c -0.0925,-1.15884 -0.29798,-4.58969 -0.4567,-7.62417 -0.1587,-3.03448 -0.34443,-5.88412 -0.41273,-6.3325 -0.0761,-0.49988 -0.96212,-1.83584 -2.2902,-3.45333 -2.32439,-2.83094 -2.3571,-2.90705 -3.36572,-7.8292 l -0.6459,-3.15201 -6.34301,-10.4373 c -3.48864,-5.74053 -6.377,-10.30057 -6.41855,-10.13341 -0.0415,0.16713 1.50558,9.99066 3.43814,21.83006 l 3.51373,21.5262 0.17213,15.20604 0.17212,15.20604 2.9559,13.18754 c 2.65478,11.84397 3.15175,14.50476 4.87789,26.11628 l 1.92195,12.92878 -0.43864,10.35127 -0.43867,10.35131 -5.31617,20.41634 -5.31614,20.4163 0.65978,0.50059 c 0.36287,0.27532 0.84302,0.4452 1.06695,0.37751 0.22395,-0.0677 6.82017,-2.07139 14.65828,-4.45271 z M 75.050121,802.90737 c 2.945426,-3.7405 3.317637,-4.36203 6.939293,-11.58724 3.383113,-6.74936 4.050238,-7.89057 5.752623,-9.84058 1.05914,-1.21323 1.82769,-2.20735 1.707875,-2.20918 -0.119815,-0.003 -2.772349,-0.48409 -5.894533,-1.07169 l -5.676695,-1.06832 -6.88785,3.26649 c -3.788321,1.79655 -6.971558,3.39908 -7.073871,3.56115 -0.690028,1.09307 0.369528,6.01174 2.469442,11.46372 1.851257,4.8064 5.034213,11.63529 5.364537,11.50938 0.102728,-0.0392 1.587375,-1.84983 3.299179,-4.02373 z M 228.20272,782.64541 c 10.8958,-2.18733 20.86479,-7.39829 28.92629,-15.12024 8.81695,-8.4456 15.00714,-19.18443 19.12063,-33.17084 l 0.9179,-3.12096 0.34415,-13.30339 c 0.33093,-12.79263 0.3158,-14.1514 -0.39387,-35.39106 -0.80371,-24.05381 -0.83525,-25.68508 -0.48927,-25.3038 0.12761,0.14062 1.53641,10.55003 3.13063,23.13202 1.59422,12.58199 2.95677,23.14411 3.02789,23.47135 l 0.12927,0.59503 0.87971,-0.51801 c 0.48383,-0.28487 1.8704,-1.29647 3.08119,-2.24798 5.63253,-4.42625 9.73568,-11.03833 11.757,-18.946 2.07442,-8.1153 2.03056,-18.70885 -0.12568,-30.35615 -2.53775,-13.70804 -8.89117,-31.78433 -16.40796,-46.68279 -1.48285,-2.93904 -10.83504,-18.35641 -15.12607,-24.93575 -0.36371,-0.55768 -0.22954,-0.67249 3.61756,-3.09504 2.19741,-1.38372 4.10663,-2.5895 4.24272,-2.67947 0.13609,-0.0899 -1.63716,-3.2462 -3.94057,-7.01381 -3.82768,-6.26082 -4.29371,-7.16373 -5.41685,-10.49494 l -1.22883,-3.64473 0.64933,-10.29439 0.64936,-10.29439 -0.68288,-4.86208 -0.68286,-4.86209 -1.78231,-2.71312 c -1.77023,-2.69471 -1.82142,-2.74305 -7.53283,-7.11378 -11.44418,-8.75779 -9.6166,-6.85784 -15.65841,-16.27853 l -5.29326,-8.25352 -2.1716,-0.66524 c -3.74186,-1.1463 -5.85124,-1.50602 -9.77219,-1.66656 -4.39909,-0.18011 -6.83741,0.11882 -10.13042,1.24203 -6.49304,2.21464 -12.03856,7.57389 -15.64258,15.11714 -1.53089,3.20417 -2.86492,7.22795 -2.86492,8.64134 0,0.59877 -0.31808,3.58072 -0.70683,6.62658 l -0.70682,5.53791 -6.07436,12.04272 -6.07437,12.04276 -0.94958,20.66719 c -2.05679,44.76455 -2.06848,45.95641 -0.52627,53.63605 4.52448,22.53024 19.44425,45.21126 42.8618,65.15844 4.33093,3.68909 8.27558,6.79352 8.43341,6.63705 0.0753,-0.0746 -1.52699,-4.42066 -3.56059,-9.65781 -2.99446,-7.71156 -4.2322,-10.52164 -6.50972,-14.77915 -10.93791,-20.44682 -19.01554,-42.4776 -22.6434,-61.75717 -2.20326,-11.70876 -2.51899,-24.94265 -0.81848,-34.30591 0.29151,-1.60511 0.60903,-3.14176 0.7056,-3.41474 0.0965,-0.27296 -0.48308,0.1181 -1.28811,0.86903 -2.29383,2.13974 -4.31744,3.69978 -4.52834,3.49099 -0.34155,-0.33817 -0.39368,-12.49065 -0.0675,-15.73295 1.80658,-17.95721 8.47988,-32.89286 19.68179,-44.05022 3.7967,-3.78162 6.34759,-5.84338 10.86678,-8.78306 3.06956,-1.9967 9.24797,-5.32285 9.88737,-5.32285 0.80588,0 -0.0132,0.55547 -3.09923,2.10167 -6.14226,3.07749 -12.13734,7.37148 -16.97602,12.15916 -8.542,8.45194 -14.36456,18.89351 -17.64991,31.65152 -1.70353,6.6153 -2.19123,10.50035 -2.34494,18.67969 -0.0738,3.92262 -0.0253,7.41313 0.10778,7.75667 0.23359,0.60354 0.31938,0.55709 2.53597,-1.37314 1.26181,-1.0988 2.49318,-2.22764 2.73636,-2.50857 0.24319,-0.28094 1.01371,-2.19225 1.71231,-4.24736 1.81633,-5.34337 4.39413,-10.27965 7.46524,-14.29537 1.37359,-1.79606 3.79553,-4.52626 4.1383,-4.66497 0.352,-0.14248 0.251,2.64889 -0.14931,4.1267 -1.28306,4.7366 -5.07812,10.93624 -10.41566,17.01511 -1.56628,1.78381 -1.74983,2.12683 -2.2323,4.17156 -1.5637,6.62712 -2.06792,16.94202 -1.24688,25.508 1.76372,18.40116 8.24031,39.67813 19.00608,62.43897 2.26079,4.7797 6.68114,13.2569 6.83377,13.10557 0.0513,-0.0509 -1.87259,-9.95393 -4.27524,-22.00689 l -4.36846,-21.91447 0.14491,-16.41714 c 0.17855,-20.22775 0.67656,-29.19643 2.36123,-42.52309 2.42809,-19.20755 6.67115,-31.82128 12.14167,-36.09463 0.70817,-0.55318 1.50512,-1.24477 1.771,-1.53686 0.4739,-0.52061 0.4911,-0.52099 0.87358,-0.02 0.5353,0.70117 0.54092,0.65513 -0.66238,5.42286 -5.87581,23.28088 -5.2261,42.94776 1.78736,54.10436 1.54696,2.46085 4.50013,5.61084 6.75755,7.20796 2.04773,1.44875 4.95052,2.84052 7.31725,3.5083 1.70518,0.48109 1.88113,0.60716 2.96779,2.12622 12.80361,17.89849 17.37526,47.39296 12.20186,78.72156 -0.37889,2.29437 -0.93691,5.24224 -1.24003,6.55084 l -0.55116,2.37925 0.5685,3.67626 c 3.19418,20.65556 3.0935,40.95251 -0.26906,54.22819 -0.94372,3.72589 -1.89697,6.4489 -2.16467,6.18348 -0.15565,-0.15433 -0.0374,-0.86324 0.30827,-1.84866 0.91521,-2.60879 2.10333,-7.71984 2.67564,-11.51011 0.90536,-5.99607 1.19544,-10.50212 1.1811,-18.34726 -0.0176,-9.65532 -0.71806,-18.40782 -2.28744,-28.58488 l -0.58978,-3.82463 0.59003,-2.63457 c 3.21047,-14.33526 4.17388,-32.44041 2.47449,-46.50337 -1.75581,-14.52996 -5.89931,-26.72331 -12.48375,-36.73673 l -1.85821,-2.82589 -1.84676,-0.51819 c -2.74591,-0.77048 -6.74032,-2.89494 -9.01983,-4.79728 -9.4525,-7.88839 -12.95151,-23.7196 -10.05203,-45.48023 0.61172,-4.59094 2.03292,-11.76838 3.19895,-16.15566 0.9185,-3.45586 0.7395,-3.94741 -0.93673,-2.57235 -5.25686,4.31231 -9.06136,14.4385 -11.61056,30.90305 -2.14218,13.83574 -3.14613,30.31843 -3.14738,51.67363 l -8.2e-4,12.24558 4.46375,22.47264 4.46373,22.47265 6.53588,13.05297 6.53588,13.05298 3.81271,15.34061 3.8127,15.34061 -0.12757,9.82337 c -0.10935,8.42345 -0.2092,10.27972 -0.70031,13.02563 -2.22782,12.45577 -9.52122,22.66605 -21.08224,29.51375 l -1.88055,1.11387 2.64343,-0.15395 c 1.45389,-0.0847 4.16803,-0.46003 6.03142,-0.83409 z m 260.46739,-18.99732 c 0,-0.15678 0.12215,-0.21017 0.27145,-0.11869 0.1493,0.0914 0.27145,0.053 0.27145,-0.0855 0,-0.44475 8.92268,-5.50766 13.13199,-7.45137 3.39574,-1.568 6.21115,-2.53892 7.60086,-2.62117 1.08043,-0.0639 1.19884,-0.14781 1.61754,-1.14554 0.37384,-0.89083 0.75821,-1.23357 2.22839,-1.98696 7.72483,-3.95855 17.44688,-11.86036 21.75613,-17.68277 3.04309,-4.11163 5.0711,-8.81283 5.41502,-12.55279 0.0853,-0.92857 -0.23159,-7.56214 -0.70443,-14.74128 l -0.85966,-13.05297 -4.88853,-18.66393 c -2.68869,-10.26513 -4.82896,-18.72294 -4.75618,-18.7951 0.0728,-0.0722 0.28152,0.15166 0.46385,0.49741 0.18236,0.34574 4.16026,7.67736 8.83981,16.29254 4.67954,8.61518 8.92699,16.54789 9.43879,17.62824 0.63729,1.34527 1.8571,5.54125 3.87065,13.31456 1.61706,6.24265 2.98796,11.30282 3.04646,11.24484 0.0977,-0.0969 2.00104,-25.24687 2.38267,-31.48326 0.38666,-6.31823 -1.18577,-16.35164 -4.39762,-28.06066 -1.52644,-5.56482 -5.85802,-18.41858 -7.72825,-22.93339 -0.7665,-1.85029 -1.4626,-3.65101 -1.54694,-4.00157 -0.17391,-0.72309 2.57856,-6.27703 3.03929,-6.1327 0.24278,0.0761 3.51861,5.37269 15.83865,25.60945 l 4.26004,6.99748 2.41325,6.8629 2.41326,6.86291 2.83977,4.13084 2.8398,4.13086 0.24327,4.34685 c 0.13383,2.39077 0.27458,4.58908 0.31282,4.88512 0.1107,0.85711 3.29695,-5.83683 4.3556,-9.15054 3.8143,-11.93938 2.95508,-23.65075 -2.63602,-35.92932 -0.79988,-1.75658 -4.48611,-8.16457 -8.52406,-14.81785 -6.8281,-11.25061 -7.11469,-11.77808 -7.11469,-13.09453 l 0,-1.37169 -3.41502,-2.91894 c -2.75395,-2.35385 -6.53863,-6.36999 -19.55003,-20.74551 -14.7628,-16.3106 -17.55612,-19.55809 -32.84637,-38.18684 -9.19128,-11.19813 -16.77525,-20.5252 -16.8533,-20.72678 -0.078,-0.20158 -0.0264,-0.36653 0.11507,-0.36653 0.14129,0 7.59459,7.6602 16.56285,17.02269 8.96825,9.36248 17.58714,18.13694 19.15307,19.49881 l 2.84718,2.47608 0.1778,-0.93969 c 0.0978,-0.51681 1.393,-5.28335 2.87823,-10.59231 l 2.70042,-9.65264 -0.9421,-17.58601 -0.94212,-17.58605 -2.70402,-13.64145 c -1.48722,-7.5028 -2.85434,-13.92164 -3.03804,-14.26408 -0.18371,-0.34245 -3.0093,-5.21775 -6.27908,-10.83406 -5.09101,-8.74441 -6.2782,-10.59064 -8.2638,-12.85112 -1.27527,-1.45182 -2.45863,-2.64006 -2.62964,-2.64053 -0.17101,0 -2.99829,-0.38324 -6.28283,-0.85064 -6.48748,-0.92324 -11.65713,-1.21964 -22.12314,-1.26843 l -6.37907,-0.0297 -0.45125,0.78643 c -0.24819,0.43253 -3.2603,6.2753 -6.69357,12.98397 l -6.24233,12.19759 -0.18503,8.61227 -0.18502,8.61227 -2.40958,13.99495 -2.40956,13.99494 -0.37099,14.90294 -0.37097,14.90298 5.48502,15.85619 c 3.01678,8.72089 5.53678,15.90749 5.60005,15.97019 0.11025,0.10932 2.91185,-0.55003 3.07553,-0.72383 0.0437,-0.0463 0.84003,-8.62255 1.76971,-19.05821 0.9297,-10.43565 1.73642,-19.02437 1.79269,-19.08606 0.0563,-0.0617 0.18786,-0.0273 0.29243,0.0763 0.10452,0.10372 0.7131,9.3585 1.35236,20.5663 l 1.16226,20.37782 2.06756,15.34061 2.06754,15.34061 0.33989,12.50109 0.33986,12.50109 -1.4281,6.33826 c -1.3714,6.08651 -2.39169,9.37453 -6.30955,20.3332 -0.7476,2.09111 -2.6598,6.37337 -4.29691,9.62276 l -2.94987,5.85486 -4.4654,2.82469 -4.4654,2.82466 2.81371,0 2.81374,0 4.45959,-2.29584 c 7.40981,-3.81464 14.12263,-7.98917 18.38812,-11.43513 2.53022,-2.04407 5.41337,-5.10479 6.14142,-6.51968 0.32419,-0.63002 1.58521,-3.81777 2.80228,-7.08394 l 2.21286,-5.93849 -0.30725,-2.94292 c -0.23831,-2.2825 -0.20375,-7.55019 0.15401,-23.4735 0.2537,-11.29185 0.53856,-20.60724 0.63303,-20.70086 0.0944,-0.0936 0.17172,-0.11153 0.17172,-0.0397 0,0.0718 2.31293,9.44769 5.13983,20.8354 l 5.13985,20.70493 1.90004,3.91688 c 4.648,9.58164 10.48107,24.05761 13.3332,33.08897 2.937,9.30015 4.13631,15.43793 4.18073,21.39612 0.0258,3.47497 -0.0539,4.30153 -0.57284,5.93708 -0.55647,1.75375 -1.97869,4.16096 -2.4526,4.1513 -0.77523,-0.0159 -0.8737,-0.46732 -0.58938,-2.70248 0.75916,-5.96768 -1.52777,-17.11061 -6.43183,-31.33879 -1.27549,-3.70059 -5.42018,-15.93271 -9.21042,-27.18248 l -6.89132,-20.45415 0.12334,3.2296 c 0.0679,1.77629 0.19217,6.01514 0.27623,9.41968 l 0.15288,6.19007 -2.59175,7.665 c -1.42548,4.21574 -2.59177,7.80511 -2.59177,7.97637 0,0.17127 1.57148,3.62527 3.49215,7.67563 l 3.49214,7.36422 0.97543,9.01597 c 0.86949,8.0366 0.99432,10.115 1.14934,19.13362 l 0.1739,10.11764 -0.88715,6.3821 -0.88718,6.38209 -1.04794,0.72481 -1.0479,0.7248 0.17294,2.18464 0.17295,2.18463 -1.04708,0.75735 c -3.73598,2.70231 -5.16296,3.87823 -7.24729,5.97229 -2.5182,2.52996 -4.47908,5.0452 -6.17846,7.9252 -1.38482,2.34693 -1.4908,2.64114 -0.95135,2.64114 0.23994,0 0.43622,-0.12827 0.43622,-0.28501 z M 383.61913,640.51856 c 1.29555,-0.39476 2.28264,-0.43126 7.46486,-0.27589 l 5.97189,0.17903 5.70044,-1.87172 c 3.13524,-1.02943 7.53272,-2.38587 9.77219,-3.01429 3.14574,-0.88273 5.33727,-1.73769 9.63645,-3.75934 6.65204,-3.12805 20.68164,-9.85688 28.77366,-13.8003 l 5.83616,-2.8441 3.44598,-3.31174 3.44594,-3.31171 -2.91488,-13.18613 c -2.1492,-9.72243 -3.01874,-13.20349 -3.31021,-13.25226 -0.21746,-0.0365 -9.63389,2.45423 -20.92538,5.53476 l -20.53,5.60094 -10.41524,7.71764 c -5.72841,4.2447 -10.56494,7.71808 -10.74784,7.71862 -0.4367,0 -0.39528,-0.0966 2.87777,-6.79813 l 2.72918,-5.58804 4.28479,-2.76963 c 2.35662,-1.52332 6.23006,-3.97104 8.60766,-5.43937 l 4.32286,-2.66973 6.53513,-1.11276 c 3.59428,-0.61201 12.18463,-2.06248 19.08963,-3.22331 10.39804,-1.74804 12.55455,-2.18402 12.55455,-2.53822 0,-0.2352 -0.84237,-5.47213 -1.87192,-11.63762 l -1.87189,-11.20999 0.78463,-3.5608 c 0.43157,-1.95842 0.75476,-3.58397 0.71825,-3.61228 -0.0365,-0.0283 -1.04361,0.0623 -2.238,0.2014 -2.7678,0.32226 -7.1355,0.0693 -10.50195,-0.60805 -5.93755,-1.19483 -12.18673,-4.09662 -17.86452,-8.2954 -3.13991,-2.32198 -7.68558,-6.81661 -8.11752,-8.02637 -0.20124,-0.56367 -3.15451,-8.18392 -6.56278,-16.93385 l -6.19687,-15.909 0.16676,-8.3803 c 0.0989,-4.97265 0.0663,-8.37856 -0.0801,-8.37603 -0.13576,0.003 -2.02893,0.94094 -4.20706,2.08578 -2.63136,1.38306 -8.79771,5.31004 -18.37662,11.70304 -7.92902,5.29183 -14.55816,9.62152 -14.73149,9.62152 -0.31827,0 -30.96458,-12.71599 -37.68238,-15.63545 l -3.63094,-1.57796 0.1876,1.40738 c 0.10318,0.77406 1.41425,5.64624 2.91352,10.82706 l 2.72595,9.41967 -0.0368,9.82337 -0.0368,9.82338 -5.20906,7.73758 -5.20907,7.73759 -2.62422,0 c -2.87296,0 -4.50684,0.4033 -18.70184,4.61615 -5.23602,1.55398 -7.84263,2.15146 -14.54687,3.33443 -4.4923,0.79266 -9.2257,1.59285 -10.51867,1.77819 -2.71382,0.38904 -2.58961,0.15169 -2.05115,3.91878 0.5562,3.89137 1.22417,5.2091 7.65077,15.09301 l 6.02917,9.27267 5.11992,4.74442 5.11994,4.74441 2.2092,-0.073 c 1.21509,-0.0401 6.91208,-0.25204 12.66002,-0.47087 10.12037,-0.38529 29.91499,-0.93298 33.8027,-0.93527 l 1.90739,0 1.99865,3.99158 c 1.09927,2.19538 1.9511,4.12675 1.89294,4.29198 -0.0613,0.17423 -2.22649,-0.82611 -5.15695,-2.38269 l -5.05116,-2.68308 -16.12191,0.54559 c -14.20661,0.48078 -21.31693,0.70734 -24.73144,0.78805 l -1.00895,0.024 2.1384,3.16232 c 1.17614,1.73927 4.15741,6.25062 6.6251,10.02521 2.46767,3.77461 4.66717,7.11457 4.88778,7.42217 0.22058,0.30762 5.1459,4.435 10.94515,9.17201 l 10.54405,8.61271 7.32628,1.14906 c 4.02945,0.63201 9.84124,1.67953 12.91506,2.32788 8.40799,1.77342 15.58571,2.92841 21.42046,3.44684 2.67,0.23725 8.55219,-0.0698 10.04364,-0.52429 z M 281.70629,549.5844 c 5.98096,-1.41795 13.61548,-3.34651 16.9656,-4.28566 3.35013,-0.93913 7.83876,-2.17163 9.97474,-2.73891 l 3.88358,-1.0314 4.2599,-4.95593 c 2.34294,-2.72576 4.40483,-5.15565 4.58197,-5.39976 0.17715,-0.2441 0.5588,-2.86603 0.84809,-5.8265 0.45885,-4.69557 0.49857,-6.41335 0.3111,-13.45667 -0.15635,-5.87457 -0.34034,-8.66053 -0.67542,-10.22708 -0.42593,-1.99145 -3.16494,-9.35831 -3.69817,-9.94663 -0.3585,-0.39552 -3.03359,2.3765 -4.72843,4.89978 -2.82514,4.20605 -6.74881,11.62972 -9.89093,18.71377 -0.64218,1.44783 -1.30116,2.58904 -1.46441,2.53603 -0.58632,-0.19045 -1.02585,-3.31326 -1.06837,-7.59068 -0.0447,-4.49194 -0.0214,-4.6376 1.52039,-9.55424 0.67906,-2.16528 1.8353,-4.48957 2.79727,-5.62305 0.40089,-0.47239 0.68317,-0.90147 0.62725,-0.95352 -0.0559,-0.0521 -0.89562,0.0719 -1.86604,0.27551 -6.35491,1.33331 -13.48125,0.89864 -18.99802,-1.15878 -10.39357,-3.87614 -19.30422,-12.71155 -25.58222,-25.36621 -2.10733,-4.24776 -4.84489,-8.65625 -6.43941,-10.36987 -0.47602,-0.51157 -1.62914,-3.00152 -3.14717,-6.79563 -1.77355,-4.43281 -2.51245,-5.98821 -2.84472,-5.98821 -0.49263,0 -10.52726,2.81906 -10.72204,3.01217 -0.0665,0.0659 0.12047,7.80193 0.41531,17.19127 0.29486,9.38934 0.54146,17.91932 0.54802,18.95548 l 0.0119,1.88394 7.69157,6.53757 7.69159,6.53758 7.63618,11.363 7.6362,11.36303 0,15.44231 0,15.44235 1.42511,-0.15346 c 0.78381,-0.0844 6.31861,-1.31362 12.29957,-2.7316 z m 170.68815,-10.3105 c 0.0922,-3.36753 0.23957,-10.05886 0.32749,-14.86962 0.0879,-4.81076 0.26852,-9.1621 0.40131,-9.66962 0.1328,-0.50753 0.38229,-3.53529 0.55442,-6.72834 l 0.31292,-5.80556 1.89808,-5.78638 c 1.04392,-3.1825 2.12019,-6.33136 2.39167,-6.99747 0.35214,-0.86402 0.56985,-2.48366 0.75965,-5.6518 l 0.26602,-4.4407 4.19159,-8.61227 c 6.1844,-12.70682 6.57535,-13.43526 9.09945,-16.95541 1.2737,-1.77628 2.56678,-3.50724 2.87351,-3.8466 0.5186,-0.57371 0.57303,-1.1025 0.7755,-7.53573 0.11979,-3.80531 0.39157,-9.21712 0.60397,-12.02624 0.21242,-2.8091 0.36272,-5.13072 0.33403,-5.15918 -0.0287,-0.0285 -2.34663,3.78378 -5.15095,8.47163 l -5.09877,8.52338 -17.25912,16.41714 -17.25909,16.41715 -1.80033,-0.0148 c -11.63498,-0.0951 -19.22965,-0.14783 -19.48074,-0.13527 -0.16919,0.008 -0.36847,0.24605 -0.44282,0.52791 -0.11838,0.44878 0.17283,0.58343 2.34353,1.08359 8.92084,2.05553 16.23438,7.89075 19.43066,15.50308 1.18651,2.82579 1.84949,5.55872 2.20583,9.09278 0.30457,3.02043 0.12921,7.03505 -0.29591,6.77455 -0.12579,-0.0771 -2.76908,-3.37803 -5.874,-7.33547 -8.62116,-10.9883 -18.0523,-22.79607 -18.27667,-22.88243 -0.38647,-0.14873 -1.96797,8.17024 -2.43759,12.8224 -0.36323,3.59778 -0.36038,10.37548 0.006,13.70789 2.18343,19.87374 13.62462,33.09745 33.7158,38.96868 2.36302,0.69054 9.31712,2.21219 10.27666,2.24869 0.38924,0.0148 0.46001,-0.69566 0.60814,-6.10606 z m -77.13498,-45.00286 10.26014,-5.37293 6.44676,-5.32139 c 8.88895,-7.33722 17.48193,-14.15187 19.6314,-15.56865 1.23955,-0.81703 4.50609,-3.96835 10.51129,-10.14057 7.15378,-7.35278 10.24988,-10.7992 17.30293,-19.26073 5.20439,-6.24368 8.53264,-10.45406 8.44428,-10.68236 -0.24843,-0.64189 -0.25047,-6.45862 -0.002,-6.55036 0.12895,-0.0477 0.62868,-0.38481 1.11053,-0.7492 l 0.87607,-0.66252 0.98168,1.35474 c 0.53991,0.7451 1.00987,1.35474 1.04437,1.35474 0.0345,0 0.90862,-0.288 1.94252,-0.63998 8.09161,-2.75473 16.35071,-8.91881 22.8709,-17.06939 l 2.21789,-2.77244 0,-5.91659 0,-5.91657 -0.58702,0.3115 c -0.32284,0.1713 -4.29056,3.76673 -8.81714,7.98987 l -8.23016,7.67837 -2.74181,4.39975 c -2.57774,4.13647 -3.78476,5.45975 -3.33815,3.65962 0.20471,-0.82516 2.46968,-7.3165 3.49798,-10.02522 0.42471,-1.11871 1.05803,-4.27199 1.7568,-8.74684 0.60099,-3.84862 1.55969,-9.96467 2.13047,-13.59124 0.59265,-3.76545 0.93232,-6.66346 0.79184,-6.7562 -0.14654,-0.0968 -0.14218,-0.72838 0.0112,-1.56294 l 0.25674,-1.40054 -1.35415,-1.46904 -1.35416,-1.46901 -1.67915,-6.46819 c -1.84852,-7.1206 -1.69534,-6.89642 -3.11407,-4.55784 -0.46285,0.76292 -0.57165,0.83403 -0.57249,0.37397 0,-0.31239 0.30437,-1.01415 0.67762,-1.55947 0.70837,-1.03493 0.78381,-1.51181 0.50441,-3.18792 -0.10026,-0.60145 -0.32053,-1.00924 -0.5451,-1.00924 -0.26689,0 -0.32691,-0.19725 -0.20568,-0.67607 0.0941,-0.37185 -0.29283,-4.0682 -0.85989,-8.21411 l -1.03105,-7.53803 0.34018,-6.25184 c 0.18707,-3.43848 0.39662,-6.44898 0.46564,-6.68992 0.0887,-0.30946 -0.0941,-0.47976 -0.62205,-0.57985 -0.58631,-0.1111 -1.01257,0.0777 -1.97581,0.87484 l -1.22819,1.01654 -6.51479,0.87101 c -5.14446,0.68779 -7.11431,1.07047 -9.36502,1.81941 -1.56761,0.52164 -2.88927,0.98113 -2.93702,1.02112 -0.0699,0.0585 0.94589,2.22738 1.16207,2.48112 0.0321,0.0377 1.5638,-0.23536 3.40366,-0.60687 1.83986,-0.37151 3.39805,-0.62307 3.46267,-0.55901 0.0645,0.064 -0.35216,0.4105 -0.92612,0.76993 -0.57397,0.3594 -1.97428,1.25596 -3.11181,1.99239 l -2.06823,1.33894 1.46806,3.47699 1.46805,3.47697 3.81468,0.94046 c 2.09809,0.51722 3.87187,1.03218 3.94177,1.1443 0.16523,0.26509 -0.81128,0.62396 -3.55263,1.30564 -1.22322,0.30417 -2.38289,0.65039 -2.57708,0.76938 -0.27854,0.17068 0,1.7059 1.32199,7.27596 0.92125,3.8828 1.63766,7.0902 1.592,7.12757 -0.2265,0.18547 -8.51516,2.79428 -24.25088,7.63285 l -17.38167,5.34466 -13.50915,6.11859 c -14.25732,6.45746 -14.55401,6.55725 -14.02143,4.71612 0.12606,-0.43581 0.25875,-1.51019 0.29485,-2.38752 0.0594,-1.44158 -0.0144,-1.68547 -0.76486,-2.53303 -3.08196,-3.48016 -5.26979,-8.54338 -6.50469,-15.05344 -0.60179,-3.17228 -0.68161,-14.3452 -0.1303,-18.22998 0.45796,-3.22691 1.60025,-9.45729 1.85634,-10.12499 0.18512,-0.48274 -5.95694,4.71461 -7.63816,6.4633 -0.44195,0.45968 -0.96769,0.79871 -1.1683,0.75338 -0.31803,-0.0719 -3.89893,0.59293 -4.90553,0.91072 -0.21867,0.069 0.30254,0.66544 1.31347,1.50295 1.16959,0.96897 1.56621,1.44528 1.31265,1.57643 -0.19987,0.1034 -1.66271,0.40392 -3.2508,0.66788 l -2.88741,0.47995 0.68888,1.84994 c 0.37886,1.01748 0.61557,1.92261 0.52599,2.01145 -0.0896,0.0888 -1.90976,-0.96853 -4.04481,-2.34967 -4.8843,-3.15958 -5.67735,-3.743 -5.49194,-4.04043 0.0819,-0.13154 1.3634,-0.23917 2.84756,-0.23917 l 2.69848,0 0,-2.09975 0,-2.09976 3.32525,-0.73769 3.32526,-0.73767 5.85029,-5.77485 c 3.21765,-3.17616 5.72177,-5.78471 5.56471,-5.79679 -0.15706,-0.0121 0.13578,-0.20392 0.65075,-0.42636 1.18142,-0.51028 2.32107,-1.3905 2.32107,-1.79273 0,-0.16957 0.24432,-0.35294 0.54291,-0.40741 0.68511,-0.12503 8.43877,-5.94462 8.34707,-6.26499 -0.0644,-0.22503 0.33842,-0.3492 0.84242,-0.2597 0.34789,0.0618 2.72177,-1.35516 2.97458,-1.77552 0.12114,-0.20145 0.33319,-0.29704 0.47123,-0.21248 0.138,0.0846 0.83288,-0.17666 1.54414,-0.58054 2.76295,-1.56898 11.63137,-6.93141 12.05176,-7.28732 0.4055,-0.34325 0.33315,-0.66925 -0.84364,-3.8018 -1.20496,-3.20761 -1.54359,-3.7856 -5.3038,-9.05268 -4.32386,-6.05669 -23.00378,-29.40256 -43.29118,-54.10467 -20.95721,-25.51769 -19.53614,-23.85989 -20.3775,-23.77239 -0.4056,0.0421 -1.02571,-0.0699 -1.37801,-0.24895 -1.13333,-0.57633 -9.0902,-2.21917 -10.74783,-2.21917 -5.16465,0 -14.04607,2.62665 -22.81922,6.7487 -3.09838,1.45577 -6.27709,3.70122 -6.09955,4.30874 0.0342,0.11735 -0.14895,0.27484 -0.40718,0.35 -0.25823,0.0751 -5.41669,1.48661 -11.46323,3.13659 -9.7277,2.65449 -11.06019,3.0823 -11.57103,3.71493 -0.31754,0.39322 -0.56184,0.78813 -0.54289,0.87756 0.019,0.0894 -0.37759,0.50633 -0.88115,0.92642 -0.78326,0.65346 -0.95976,0.70641 -1.22152,0.3665 -0.16828,-0.21853 -1.98309,-2.58949 -4.03291,-5.2688 -2.04983,-2.67931 -4.57936,-5.7635 -5.62119,-6.85373 l -1.89422,-1.98227 -0.0114,9.09398 c -0.0112,8.65293 -0.0386,9.14693 -0.57324,10.18587 -0.30901,0.60054 -0.49301,1.16013 -0.4089,1.24352 0.0841,0.0834 -0.0707,0.30694 -0.34405,0.49676 -0.33236,0.23081 -2.00556,0.39428 -5.05117,0.49349 l -4.55417,0.14835 -1.80121,1.26707 c -5.68669,4.00033 -9.47733,9.43864 -11.1976,16.06482 -0.99853,3.84614 -1.3731,14.65551 -0.9984,28.81161 l 0.313,11.82569 3.96326,16.29036 3.96325,16.29039 6.09946,1.38816 c 3.3547,0.76347 6.45546,1.48176 6.89057,1.59617 0.65701,0.17276 0.76328,0.1361 0.62691,-0.21627 -0.30745,-0.79435 0.41982,-0.91467 3.10222,-0.51326 2.47014,0.36959 2.62896,0.43231 2.77499,1.0955 0.0852,0.3869 0.24982,0.84083 0.36585,1.00869 0.11602,0.16789 11.57112,3.06306 25.45577,6.43374 l 25.2448,6.12852 4.6825,4.59785 c 2.57538,2.5288 4.68251,4.69729 4.68251,4.81886 0,0.12158 -0.87971,0.13511 -1.95495,0.0301 -1.36645,-0.13351 -2.1223,-0.34801 -2.51091,-0.71258 -0.30576,-0.28687 -1.04457,-0.78149 -1.64176,-1.09911 -1.38195,-0.73509 -4.6098,-0.78167 -6.22292,-0.0898 l -1.06539,0.45693 0.84795,0.86877 c 3.42727,3.51124 7.51365,14.39982 10.37587,27.64754 1.11126,5.14341 1.76222,7.11406 2.251,6.81457 0.1346,-0.0825 0.20163,0.072 0.14894,0.34333 -0.0547,0.28171 -0.44439,0.58335 -0.90833,0.70317 -0.44686,0.11541 -9.48528,1.24622 -20.08539,2.5129 -10.60011,1.26667 -23.72543,2.8418 -29.16739,3.50029 -5.44198,0.65847 -10.22934,1.19722 -10.63861,1.19722 -0.73982,0 -0.7372,-0.006 0.45494,-1.14382 l 1.19905,-1.14382 -2.73642,-6.4592 c -1.50504,-3.55256 -2.78753,-6.51255 -2.85,-6.57773 -0.12065,-0.12593 -8.05028,0.73646 -8.85492,0.96301 -1.32129,0.37202 -0.06,-0.53033 3.60375,-2.57819 2.23559,-1.24959 4.06469,-2.37936 4.06469,-2.51064 0,-0.13126 -0.63682,-1.74969 -1.41517,-3.59651 l -1.41517,-3.35785 -4.2174,0.18476 c -2.31958,0.10161 -4.15634,0.12098 -4.08169,0.043 0.0747,-0.078 1.78478,-0.64077 3.80029,-1.25074 2.01552,-0.60996 3.80779,-1.16024 3.98283,-1.22284 0.23084,-0.0826 0.16163,-0.69124 -0.25201,-2.21607 -0.31365,-1.15623 -0.61235,-2.15547 -0.66377,-2.22051 -0.0514,-0.065 -0.93625,0.15085 -1.9663,0.47976 -2.90378,0.92724 -12.69563,7.00446 -12.39754,7.69442 3.17843,7.35684 7.58421,18.59537 8.97518,22.89445 1.34501,4.15704 3.26354,8.97434 7.2541,18.21445 5.34426,12.37465 5.45754,12.60422 7.57005,15.34061 1.17954,1.5279 3.00218,3.89019 4.05032,5.24961 1.04815,1.35939 1.90572,2.55496 1.90572,2.65681 0,0.28162 7.87942,11.34979 8.3825,11.77486 0.24177,0.20429 10.15072,6.18175 22.01984,13.28325 l 21.58024,12.91181 9.81391,3.94555 c 5.39767,2.17004 10.77238,4.36268 11.94379,4.87253 1.17143,0.50982 2.49633,1.01148 2.94422,1.11477 3.82038,0.88128 11.33112,3.12236 21.03734,6.27719 6.34514,2.06237 11.653,3.76184 11.79529,3.7766 0.14227,0.0148 4.87576,-2.39102 10.51884,-5.34615 z m -41.99423,-51.23699 c -1.49297,-0.30486 -2.75032,-0.57563 -2.79411,-0.60169 -0.0438,-0.0261 0.27078,-0.6376 0.69903,-1.35899 0.59218,-0.99753 0.93651,-1.31158 1.43801,-1.31158 0.46936,0 1.23653,-0.60152 2.66227,-2.08738 3.74563,-3.90361 7.10652,-5.49096 11.13636,-5.25967 1.9835,0.11384 2.93757,0.43516 6.04692,2.03653 0.10284,0.053 0.4456,-0.7647 0.76171,-1.817 l 0.57472,-1.9133 1.30183,1.08065 c 2.07494,1.72243 2.03055,1.51119 0.91311,4.34702 -0.54977,1.39513 -1.01196,2.56366 -1.02711,2.59673 -0.0152,0.0331 -1.02016,-0.36535 -2.23332,-0.88536 -5.78525,-2.47988 -9.97635,-2.10621 -13.33494,1.18881 -0.85232,0.8362 -1.91168,2.21645 -2.35412,3.06723 -0.44243,0.85079 -0.86549,1.53011 -0.94014,1.50961 -0.0747,-0.0205 -1.35724,-0.28674 -2.85022,-0.59161 z m -4.33252,-21.89388 c -2.47033,-2.85009 -4.36863,-5.97585 -5.18773,-8.54217 -1.13021,-3.54115 -0.87673,-7.5117 0.66041,-10.34455 0.48752,-0.89848 0.48381,-0.93591 -0.43421,-4.396 -0.50924,-1.9194 -0.85955,-3.66132 -0.77841,-3.87094 0.1043,-0.26959 0.61969,-0.38112 1.76108,-0.38112 l 1.61356,0 1.36837,4.06066 1.36835,4.06063 -1.11435,1.38932 c -4.39958,5.48516 -3.11103,10.54689 3.9864,15.65953 l 0.7558,0.54446 -0.59334,1.15308 c -0.32631,0.63421 -0.81628,1.51662 -1.08881,1.96093 l -0.49548,0.8078 -1.82164,-2.10163 z m -22.94816,70.40258 c 3.60314,-0.39603 8.80121,-1.42153 12.73554,-2.5125 1.83498,-0.50884 3.38848,-0.97685 3.4522,-1.04004 0.0638,-0.0632 -1.01778,-0.50543 -2.40336,-0.9828 -3.10783,-1.07074 -8.09909,-3.16108 -13.56757,-5.6821 -6.33696,-2.92139 -24.10437,-11.87907 -24.10437,-12.15254 0,-0.13298 -0.12215,-0.16691 -0.27145,-0.0754 -0.1493,0.0915 -0.27145,0.0178 -0.27145,-0.16352 0,-0.18145 -0.079,-0.25146 -0.17582,-0.15558 -0.21485,0.21302 -2.26723,-0.89733 -2.26723,-1.22658 0,-0.12948 -0.12215,-0.16059 -0.27145,-0.0691 -0.14929,0.0914 -0.27145,0.0309 -0.27145,-0.13458 0,-0.16549 -0.12215,-0.22603 -0.27144,-0.13456 -0.1493,0.0915 -0.27145,0.0512 -0.27145,-0.0895 0,-0.14071 -0.29745,-0.32985 -0.66101,-0.42034 -0.36355,-0.0905 -4.11973,-2.41977 -8.34708,-5.17627 l -7.68606,-5.01177 -4.5807,-4.68751 c -2.5194,-2.57811 -4.62513,-4.64346 -4.67939,-4.58964 -0.0542,0.0538 0.50513,1.8848 1.24312,4.06892 l 1.3418,3.9711 6.74197,10.0045 c 3.70808,5.50249 7.34768,11.02645 8.08795,12.27548 1.57886,2.66382 5.35106,6.61909 7.97359,8.36051 7.5426,5.0085 17.05724,6.88437 28.52511,5.62388 z m -99.32714,-4.65389 c 7.45267,-2.93225 16.26553,-4.35907 22.75422,-3.6839 1.55433,0.16173 2.898,0.22217 2.98594,0.13433 0.0879,-0.0879 0.15987,-1.45103 0.15987,-3.02926 0,-2.60373 -0.071,-3.0129 -0.76645,-4.41707 l -0.76645,-1.54751 -1.67659,0.0105 c -0.92213,0.005 -7.0513,0.29295 -13.62038,0.63838 -6.56908,0.34541 -11.98492,0.59267 -12.03519,0.54944 -0.45486,-0.39113 5.50072,-2.62855 9.9359,-3.73274 7.56015,-1.88225 13.62654,-1.53342 16.47634,0.94737 0.71917,0.62606 1.14984,0.77982 2.18423,0.77982 l 1.28843,0 -0.16888,-3.16232 c -0.0928,-1.73928 -0.43075,-10.79225 -0.75082,-20.11774 -0.39659,-11.55449 -0.67816,-17.01838 -0.88394,-17.15314 -0.1661,-0.10875 -0.87505,-0.19958 -1.57547,-0.20184 l -1.27346,-0.004 -0.89812,-1.68207 c -0.49503,-0.92712 -1.75795,-2.55142 -2.8138,-3.61893 -4.3551,-4.4033 -10.83729,-5.73117 -18.22799,-3.73402 -2.27806,0.61559 -2.80741,0.6608 -5.97639,0.51052 -7.475,-0.35451 -11.76616,1.55747 -13.00903,5.79633 -0.54763,1.86773 -0.37177,4.68209 0.42373,6.78127 0.99636,2.62922 0.83513,2.58148 4.09552,1.21264 6.07739,-2.55152 10.79484,-3.50223 16.4227,-3.30966 6.14511,0.21027 9.45106,1.56401 13.3689,5.47444 1.2317,1.22937 2.23945,2.36151 2.23945,2.51588 0,0.54516 -0.63126,0.26849 -1.77744,-0.77901 -2.16422,-1.97788 -5.46552,-3.22879 -10.02206,-3.79741 -4.84697,-0.60488 -13.6151,0.0301 -20.48769,1.48379 -1.11133,0.23505 -2.06337,0.4698 -2.11567,0.52165 -0.0523,0.0518 0.14721,1.28996 0.44335,2.75136 0.89772,4.4301 1.89301,11.91693 2.70037,20.31306 l 0.7661,7.96722 3.33072,9.14913 3.33071,9.14917 1.39714,-0.73896 c 0.76842,-0.40644 2.81241,-1.29582 4.5422,-1.9764 z m 225.36576,-14.34269 1.85047,-0.1653 3.84997,-4.04006 c 2.1175,-2.22205 9.67344,-9.98522 16.79095,-17.25152 l 12.94095,-13.21144 5.00078,-7.53622 5.00078,-7.5362 0.43182,-7.79898 c 0.23752,-4.28945 0.40653,-7.82405 0.37561,-7.85474 -0.0706,-0.07 -6.70198,5.29132 -14.16057,11.44843 -5.52457,4.56055 -8.62774,6.72299 -11.10625,7.73937 -1.32978,0.54528 -1.89418,1.34332 -5.07703,7.17867 l -1.7324,3.17608 -16.3376,17.26412 c -8.98568,9.49525 -16.27709,17.36124 -16.20309,17.47993 0.074,0.11869 0.58538,0.22441 1.13643,0.23491 0.55107,0.0105 3.13957,0.30548 5.75228,0.65549 4.68584,0.62776 6.50835,0.66226 11.4869,0.21746 z m 79.97122,-21.68615 c 1.85212,-4.41645 3.51991,-7.73407 3.88792,-7.73407 0.20575,0 0.72786,-0.3661 1.16023,-0.81356 l 0.78614,-0.81356 0.36089,-7.43164 0.36086,-7.43167 3.01118,-7.70093 3.01116,-7.70096 -0.47246,-8.47771 c -0.25987,-4.66273 -0.49681,-8.50499 -0.52659,-8.53831 -0.0298,-0.0333 -0.91935,-0.14035 -1.97683,-0.2378 l -1.92268,-0.17715 -0.60041,-1.27098 c -0.46061,-0.97502 -0.98887,-1.52281 -2.2689,-2.35274 -9.44522,-6.12397 -20.63896,-6.08807 -31.52725,0.10109 l -2.22117,1.26256 -0.47924,6.56505 c -0.26361,3.61077 -0.43533,6.6086 -0.38161,6.66185 0.10531,0.10435 9.38616,-0.42638 17.01245,-0.9729 5.4725,-0.39219 9.11267,-0.11498 12.94321,0.98559 3.98455,1.1448 6.21008,2.52339 7.20958,4.46592 0.58919,1.14503 1.01197,3.46692 0.63069,3.46372 -0.13225,0 -0.76603,-0.53262 -1.40835,-1.18113 -2.03913,-2.0587 -5.43948,-3.49555 -10.36873,-4.38135 -3.45475,-0.62081 -12.65594,-0.61026 -19.92589,0.0229 -5.58592,0.48645 -6.47581,0.72391 -6.82729,1.82187 -0.0948,0.29602 -0.0302,2.85876 0.14352,5.69499 0.31149,5.0862 0.30256,5.28765 -0.65211,14.71106 -0.53236,5.25484 -0.96817,9.71548 -0.96844,9.91251 0,0.20562 0.37539,0.0138 0.88167,-0.4505 0.48521,-0.44485 1.98158,-1.66395 3.32525,-2.70912 2.73027,-2.12372 2.58879,-2.0898 6.78559,-1.62582 l 2.5567,0.28265 2.63803,-1.96473 2.63803,-1.96476 3.00593,0.008 c 4.18615,0.0116 6.67306,0.69367 9.03742,2.4784 1.20024,0.90598 2.51913,3.59234 2.51913,5.131 l 0,1.20715 -1.487,-1.39436 c -2.65402,-2.48863 -5.59612,-3.43072 -9.91388,-3.17448 -2.61509,0.15518 -6.15542,0.9762 -7.25172,1.68168 -0.44067,0.28356 -1.5,0.38688 -3.96708,0.38688 l -3.36583,0 -3.29423,2.61565 -3.29421,2.61566 0,4.08835 0,4.08838 2.10373,0.71862 c 1.97258,0.67383 2.56076,0.73473 9.43288,0.97673 6.86683,0.24182 16.96829,0.64803 18.18712,0.73135 0.43503,0.0297 0.72762,-0.40338 1.47259,-2.17974 z m -264.8378,-6.82319 c 0.2092,-0.20738 -2.63166,-5.86718 -7.07653,-14.09842 -1.87841,-3.47855 -3.46383,-6.385 -3.52315,-6.45877 -0.24951,-0.31037 -0.94397,1.09069 -1.69904,3.42773 -0.79416,2.45808 -0.80745,2.59607 -0.80745,8.38379 l 0,5.88457 1.28939,0.53878 c 3.78017,1.57957 11.11251,3.02059 11.81678,2.32232 z m -13.85266,-19.83104 c 1.30635,-3.15236 2.36823,-5.84685 2.35972,-5.98772 -0.009,-0.14085 -0.95519,-2.15532 -2.10373,-4.47657 l -2.08827,-4.22047 -2.7145,3.09054 c -3.14158,3.57678 -4.13751,4.56749 -4.36493,4.34203 -0.0897,-0.089 1.21497,-2.68002 2.89929,-5.75797 l 3.06241,-5.59623 -0.60946,-2.95653 c -0.73895,-3.58476 -3.53185,-10.36318 -8.529,-20.70014 l -3.36117,-6.9528 -2.55633,-0.0604 c -2.10325,-0.0498 -2.86906,-0.19302 -4.32076,-0.80826 -0.97043,-0.41129 -2.68056,-1.07112 -3.80029,-1.46632 -3.04338,-1.07414 -4.49631,-2.02654 -7.21056,-4.7266 -4.62742,-4.60324 -8.11186,-11.02953 -11.17718,-20.61385 -0.59177,-1.8503 -1.15118,-3.7531 -1.24312,-4.22841 -0.34378,-1.77723 0.31024,-1.04484 1.44188,1.61467 4.46554,10.49466 11.09411,20.80716 16.06392,24.99165 3.28731,2.76785 3.6034,2.92064 6.04265,2.92064 1.21409,0 2.87536,-0.18635 3.6917,-0.41412 0.81635,-0.22777 2.79722,-0.74249 4.40193,-1.14382 1.60472,-0.40133 2.91756,-0.79026 2.91744,-0.86427 -1.3e-4,-0.074 -0.68481,-0.48922 -1.52153,-0.92272 -2.72605,-1.4123 -7.38225,-6.19531 -11.31945,-11.62772 -2.05456,-2.83481 -2.20481,-3.24853 -7.76825,-21.38993 -2.26785,-7.39506 -4.01168,-13.78389 -5.69315,-20.85785 -2.26251,-9.51847 -2.57244,-11.19216 -4.6543,-25.13442 l -2.23038,-14.93692 0.16048,-16.148 0.16049,-16.14802 1.49117,-10.22707 c 0.8236,-5.64863 2.16638,-13.44034 2.99941,-17.4047 l 1.50824,-7.17764 4.61659,-10.58517 4.61658,-10.58518 3.45646,-3.33111 c 4.07811,-3.93023 8.40866,-7.43927 10.62871,-8.61245 1.55071,-0.81947 3.27855,-1.11721 3.27855,-0.56496 0,0.15143 -3.81726,4.47503 -8.48281,9.60799 -4.66554,5.13296 -8.93637,9.8367 -9.49075,10.45277 -0.88531,0.98384 -1.22245,1.82055 -2.77081,6.87644 -0.96957,3.16598 -2.80705,9.08685 -4.0833,13.15749 l -2.32045,7.40118 -1.80312,17.35911 -1.80313,17.35911 1.29561,17.22455 1.29559,17.22454 5.37324,22.20351 c 2.95527,12.21194 5.69888,23.65683 6.09689,25.43312 3.07592,13.72748 9.80965,25.23285 17.68937,30.22444 l 1.40322,0.88893 3.40184,-0.1874 3.40183,-0.1874 -1.0049,-0.7198 c -0.5527,-0.39589 -1.67675,-1.02553 -2.49788,-1.39919 -2.06193,-0.93829 -5.4904,-3.56333 -7.79334,-5.96707 -5.62181,-5.86778 -8.51629,-12.51008 -9.32341,-21.39536 -0.28818,-3.17243 -0.11918,-7.31265 0.29849,-7.31265 0.12461,0 0.3061,0.57527 0.40332,1.27838 0.0972,0.70311 0.48361,2.67115 0.85868,4.37342 2.43357,11.04516 7.99476,21.09961 15.08302,27.26966 l 1.72287,1.49969 4.32914,0.4153 c 2.38103,0.22841 4.91072,0.48848 5.62156,0.57791 1.28467,0.16161 1.2949,0.15669 1.70816,-0.82392 l 0.41574,-0.98654 -1.43672,-1.53939 c -2.6013,-2.78728 -6.89163,-9.47988 -12.35998,-19.28067 -3.95357,-7.08586 -7.69135,-14.19906 -7.54005,-14.34907 0.0665,-0.066 1.89651,1.47811 4.0667,3.43118 2.17021,1.95308 3.94582,3.44126 3.94582,3.30704 0,-0.13422 -1.09764,-2.88848 -2.4392,-6.12055 l -2.43919,-5.87656 -2.98311,-16.03283 -2.9831,-16.03285 -0.29402,-13.50851 -0.294,-13.5085 0.7278,-3.71604 c 0.40029,-2.04381 0.72807,-3.83715 0.72838,-3.98516 2.7e-4,-0.14803 -0.3167,-2.26746 -0.70446,-4.70985 -0.81154,-5.1116 -1.64142,-12.70381 -2.18993,-20.03472 l -0.38144,-5.09781 2.08867,-5.40945 2.08868,-5.40945 6.23401,-9.27406 c 3.42872,-5.10072 6.29907,-9.35967 6.37857,-9.46434 0.0795,-0.10466 2.87412,-0.94064 6.21027,-1.85773 l 6.06575,-1.66743 2.06893,0.48141 c 1.13791,0.26478 2.23748,0.54447 2.44346,0.62155 0.31624,0.11831 0.34531,-1.36406 0.18677,-9.5236 l -0.18776,-9.66372 2.05497,-6.94921 c 2.38711,-8.0724 5.1038,-14.80691 6.22869,-15.44054 0.65143,-0.36692 2.42481,-4.88054 8.17469,-20.80618 2.57521,-7.13275 7.62768,-19.77337 8.36088,-20.91803 0.35424,-0.55301 15.78423,-14.464408 20.48459,-18.468528 2.42934,-2.069505 4.47533,-4.015457 4.54665,-4.324327 0.0713,-0.30886 0.49514,-2.317671 0.94187,-4.46401 0.77406,-3.718923 4.04177,-13.710712 4.72638,-14.451973 0.1775,-0.192179 5.23269,-0.928438 12.51303,-1.822439 6.71838,-0.824991 12.54037,-1.588211 12.93778,-1.696042 l 0.72254,-0.196055 -1.624,-3.860928 c -0.8932,-2.123512 -1.57009,-3.914371 -1.50421,-3.979688 0.11216,-0.111217 1.67742,1.459062 5.05126,5.067537 l 1.4334,1.533059 -0.19034,2.265502 c -0.10475,1.246022 -0.2689,2.386678 -0.36492,2.534787 -0.096,0.148099 -6.03785,0.863258 -13.20412,1.58924 l -13.02958,1.319964 -0.13572,3.151601 -0.13572,3.151611 -1.9451,1.956797 -1.9451,1.956797 0.92717,1.180334 c 0.91348,1.162923 1.12344,1.641591 0.72357,1.649682 -0.56055,0.01135 -0.97082,0.623887 -1.67965,2.507685 -0.48554,1.290458 -0.65957,2.064629 -0.46453,2.066584 0.17156,0.0021 3.24355,-0.258201 6.82668,-0.577569 9.34954,-0.833352 13.97228,-0.561091 25.6236,1.509086 4.68725,0.832816 8.9015,1.702253 9.365,1.932082 0.4635,0.22983 4.99592,2.707935 10.07203,5.506911 l 9.22928,5.08904 1.35726,1.90612 c 1.10689,1.5545 3.79825,4.01384 14.59041,13.33253 7.27824,6.28453 13.23316,11.5415 13.23316,11.68214 0,0.14064 -0.0916,0.25375 -0.20359,0.25137 -0.24256,-0.005 -25.63689,-17.8862 -27.92957,-19.66619 -1.46776,-1.13953 -1.64955,-1.40388 -2.35455,-3.42386 -0.63876,-1.8301 -0.97253,-2.37112 -2.03588,-3.29987 -4.47584,-3.9093 -13.96095,-7.220624 -28.95973,-10.110094 -3.31589,-0.638798 -4.63068,-0.746273 -10.31509,-0.843167 -15.83628,-0.269938 -15.71087,-0.279258 -20.80205,1.547461 -9.15995,3.28663 -18.81389,12.45394 -25.96357,24.6548 -1.55267,2.64959 -5.00442,9.56176 -4.85092,9.71395 0.0695,0.0689 1.64406,-0.88279 3.49907,-2.11489 3.48183,-2.31268 4.1316,-2.95351 13.55909,-13.37285 0.84942,-0.93879 1.65585,-1.66407 1.79209,-1.61175 0.13624,0.0523 -1.32612,2.80615 -3.24966,6.11959 -1.92354,3.31346 -3.44189,6.07946 -3.37409,6.14669 0.0678,0.0673 6.12059,-0.68062 13.45063,-1.66187 l 13.3273,-1.7841 16.8926,6.10526 c 9.29091,3.35788 17.57535,6.35355 18.40987,6.657 0.96487,0.35086 7.68447,4.67282 18.45545,11.87025 l 16.93813,11.31849 5.25788,7.13204 c 2.89182,3.92263 6.28934,8.5248 7.55003,10.22708 l 2.29216,3.09502 -0.19024,-5.31538 c -0.11114,-3.10456 -0.0888,-5.31452 0.0537,-5.3133 0.13415,0.001 1.93251,4.57305 3.99634,10.15979 l 3.7524,10.15771 1.98648,2.66128 c 1.26672,1.69704 2.04523,3.01346 2.14863,3.6333 0.2279,1.36618 0.20719,3.26238 -0.0355,3.24548 -0.11194,-0.007 -2.03058,-2.36945 -4.26358,-5.24811 -2.233,-2.87866 -4.18743,-5.23964 -4.34318,-5.24664 -0.15577,-0.007 -1.2553,-1.36296 -2.44343,-3.01327 -5.45945,-7.58319 -11.12905,-14.22794 -17.57867,-20.60206 -3.47616,-3.43545 -6.90532,-6.90514 -7.62038,-7.71043 -5.5829,-6.28732 -26.60374,-16.66978 -55.88337,-27.60151 -4.03296,-1.50573 -6.12958,-2.14568 -7.46486,-2.2785 -2.17126,-0.21597 -7.34437,0.20919 -11.74728,0.96546 -6.60031,1.13371 -18.86339,4.62421 -20.068,5.71206 -1.82821,1.65097 -5.47653,7.93215 -10.88839,18.74621 -2.18527,4.36669 -4.55971,8.82864 -5.27649,9.91544 -7.81095,11.84314 -7.65981,29.15657 0.43971,50.37047 2.0547,5.38153 6.43681,14.53458 6.95759,14.53248 0.0991,-2.7e-4 0.71429,-0.45736 1.36706,-1.01544 l 1.18682,-1.01472 -1.48236,-2.95428 c -0.81529,-1.62484 -2.08155,-4.34704 -2.8139,-6.0493 -0.73234,-1.70228 -1.48752,-3.19332 -1.67818,-3.31344 -0.19066,-0.12011 -0.27593,-0.33182 -0.1895,-0.47049 0.0865,-0.13865 -0.45109,-2.09925 -1.19446,-4.35688 -2.19566,-6.66806 -2.61662,-8.97842 -2.61135,-14.33185 0.004,-4.11305 0.0662,-4.72767 0.61557,-6.08383 1.40162,-3.46026 3.04535,-4.98167 7.38769,-6.83796 1.76665,-0.75523 2.76738,-1.41067 4.27066,-2.79716 l 1.96335,-1.8108 -1.89548,-1.42872 c -1.0425,-0.78581 -1.89548,-1.55133 -1.89548,-1.70117 0,-0.378 3.66172,-0.0329 6.37906,0.60114 8.0472,1.87777 16.15258,6.71632 23.61611,14.09775 2.85976,2.82828 23.48729,19.45777 25.17695,20.29713 0.41057,0.20395 0.74649,0.46575 0.74649,0.58177 0,0.11602 1.57609,1.44277 3.5024,2.94834 1.92635,1.50555 4.28535,3.61202 5.24224,4.68103 2.08861,2.33326 16.59705,19.29473 28.59718,33.43225 11.44003,13.47767 30.20319,37.1382 37.99537,47.91252 l 6.2334,8.61904 5.2652,11.10713 c 2.89585,6.10893 5.39997,11.0714 5.56472,11.02772 0.52666,-0.13965 10.47888,-5.35352 10.47888,-5.48978 0,-0.0721 -0.62054,-3.84972 -1.37897,-8.39481 l -1.37899,-8.26378 -5.58834,-13.72581 -5.58832,-13.72581 -10.26579,-16.68627 c -5.64621,-9.17746 -10.26456,-16.80739 -10.26305,-16.95542 0.003,-0.31081 3.50751,-1.54189 3.93073,-1.38086 0.15537,0.059 0.52205,0.57565 0.81486,1.14787 0.29279,0.57222 0.6803,1.22524 0.86109,1.45115 0.18082,0.22592 4.59895,7.52888 9.81809,16.22883 l 9.48931,15.81805 3.41361,7.89477 3.41361,7.89476 3.44389,15.03535 c 1.89412,8.26943 3.53935,15.14488 3.65604,15.27877 0.11895,0.13648 0.85574,-0.23832 1.67709,-0.85318 1.37671,-1.03054 1.47542,-1.183 1.63872,-2.53106 0.0955,-0.78895 0.17478,-3.58416 0.17609,-6.21158 0,-2.62742 0.0949,-4.77712 0.20799,-4.77712 0.11308,0 0.80751,2.72379 1.54318,6.05289 0.73566,3.3291 1.40687,6.16408 1.49157,6.29993 0.12316,0.19761 9.40417,-1.65431 9.68471,-1.93246 0.0405,-0.0402 -2.72885,-10.4128 -6.15421,-23.05023 -3.4254,-12.63743 -6.22798,-23.1405 -6.22798,-23.34014 0,-0.59028 2.34554,-0.48926 2.50727,0.10797 0.87179,3.21924 12.80046,45.17597 12.86634,45.2548 0.0495,0.0593 1.20699,-0.39964 2.57222,-1.01972 1.36523,-0.62006 2.51033,-1.09241 2.54468,-1.04963 0.0343,0.0428 0.75167,1.10612 1.59403,2.363 l 1.53158,2.28524 0,8.2381 0,8.23809 3.61467,14.71049 3.61468,14.71045 6.66639,6.19393 c 5.84138,5.42735 8.85156,8.65721 10.83205,11.62263 0.0889,0.1331 3.14271,-0.62931 6.78625,-1.69424 l 6.62462,-1.93626 5.83616,0.43586 c 12.78498,0.95484 22.65158,4.33416 26.228,8.98317 l 0.87162,1.13306 2.33667,-2.43451 c 1.28518,-1.33896 4.18122,-4.63536 6.43566,-7.32535 2.25444,-2.68997 6.70698,-7.69612 9.89451,-11.12478 l 5.7955,-6.23391 5.82134,-10.85606 c 5.31795,-9.9173 6.08883,-11.53097 8.91462,-18.66094 l 3.09325,-7.80487 -0.75799,-10.36164 c -0.41692,-5.6989 -1.05294,-15.20605 -1.41336,-21.12698 l -0.65533,-10.76534 -2.59672,-8.34314 c -1.54894,-4.97679 -3.76408,-13.06689 -5.48996,-20.05045 l -2.89324,-11.7073 -10.03438,-28.39359 c -5.5189,-15.61647 -11.18361,-31.69617 -12.58825,-35.73267 -1.40465,-4.03648 -2.81681,-7.85145 -3.13818,-8.4777 -1.04196,-2.03055 -14.08422,-25.03145 -21.39704,-37.73515 -3.91783,-6.80599 -7.40476,-12.92204 -7.74871,-13.59125 -0.76466,-1.48766 -4.71775,-5.25711 -27.68724,-26.400844 l -17.10132,-15.74201 -9.77219,-7.410821 C 441.69656,67.780952 435.39103,63.317246 426.91529,57.667157 418.74145,52.21832 414.37174,49.132185 413.07136,47.8898 397.47748,32.991415 373.68053,27.684384 344.39462,32.573983 c -10.79221,1.801875 -22.28167,5.313296 -30.1309,9.208629 -5.58207,2.770207 -7.6889,4.430511 -8.95512,7.057175 -0.74201,1.539208 -1.25963,2.037826 -7.72814,7.444174 -6.08121,5.082659 -7.36269,6.295854 -10.43203,9.876016 -2.12629,2.480186 -3.67057,4.05978 -3.93602,4.02606 -0.24026,-0.03053 -2.45236,-0.320438 -4.91576,-0.64426 -10.24394,-1.346599 -20.90944,-0.47807 -28.38422,2.311424 -2.84629,1.062204 -6.97931,3.282876 -9.30555,4.999871 -2.4154,1.782817 -5.07512,4.519828 -5.62219,5.785549 -0.45245,1.046853 -2.23524,2.678734 -4.70604,4.307694 l -1.93197,1.273708 -2.32359,-0.322278 -2.32359,-0.322289 -5.61469,5.327982 c -4.82434,4.577988 -6.69328,6.616033 -13.27726,14.478512 -5.37106,6.41405 -9.08388,11.16266 -12.41529,15.87888 -4.46781,6.32501 -6.73155,9.33871 -11.62455,15.47578 -1.92221,2.41096 -2.27319,3.08294 -6.12989,11.73635 -3.48674,7.82331 -4.53012,10.50625 -7.06466,18.16589 -1.63554,4.94283 -3.11755,9.53194 -3.29334,10.19805 -0.17579,0.6661 -0.40614,1.27165 -0.51189,1.34567 -0.10576,0.074 -1.07846,2.71853 -2.16157,5.8767 -1.08312,3.15817 -3.34521,9.27424 -5.02686,13.59124 -2.64223,6.78293 -3.28494,8.76305 -4.73162,14.57744 -1.6059,6.45436 -1.79048,7.5722 -4.53313,27.45162 -1.57248,11.39781 -3.01849,21.93439 -3.21333,23.41462 -0.28698,2.18013 -0.29337,4.48054 -0.0337,12.11101 l 0.32062,9.41967 2.87469,10.36164 c 2.54361,9.16825 3.46836,11.97835 8.02916,24.39865 l 5.15447,14.037 6.26376,10.30792 c 3.44506,5.66935 6.26376,10.20902 6.26376,10.08813 0,-0.31198 -5.70078,-29.52486 -5.88045,-30.13353 -0.10104,-0.34218 -0.032,-0.46437 0.21602,-0.38239 0.20044,0.0662 0.68581,1.14029 1.07859,2.38675 0.39279,1.24647 3.30718,10.47818 6.47645,20.51487 l 5.76229,18.24857 4.83054,4.7068 4.83052,4.70679 7.96931,4.85986 c 9.79034,5.97032 10.11046,6.22984 6.73611,5.46087 -12.47248,-2.84229 -23.72754,-11.47235 -34.40701,-26.38229 -5.30153,-7.40163 -11.27373,-18.53501 -15.43425,-28.77261 -0.85162,-2.09552 -10.05009,-29.84836 -11.85359,-35.7636 -0.04,-0.13089 -0.0291,4.22907 0.0241,9.68882 0.0961,9.86789 0.10397,9.98415 1.31402,19.59832 1.01277,8.04645 1.23287,10.62413 1.30986,15.34061 0.12548,7.68576 0.98602,12.48072 3.45663,19.26031 2.09703,5.75444 6.51948,13.1544 10.01885,16.76424 1.0338,1.06644 1.87964,2.0172 1.87964,2.11281 0,0.0956 -0.18324,0.24353 -0.40717,0.32874 -1.09938,0.41829 0.0687,4.17375 2.85785,9.18849 0.81693,1.46879 2.9708,4.90657 4.78636,7.63951 l 3.30103,4.96899 9.72856,4.93722 c 13.70252,6.95401 13.39312,6.79073 13.39312,7.06739 0,0.33772 -1.73673,0.20961 -2.20512,-0.16266 -0.42241,-0.33569 -13.6024,-4.69664 -13.75059,-4.54973 -0.10789,0.10696 7.7396,17.13396 8.03217,17.42777 0.10341,0.10382 1.83688,-0.62971 3.85217,-1.63011 9.90043,-4.91452 19.33222,-5.89728 27.42156,-2.85729 3.84863,1.44633 8.46551,4.78544 11.12391,8.04521 0.67184,0.82382 1.28259,1.49845 1.35724,1.49916 0.0747,0 1.20457,-2.5779 2.51092,-5.73026 z m 269.31388,-47.91215 c 0.15915,-0.87021 27.67559,-36.02193 27.88577,-35.62356 0.38144,0.72295 0.49423,3.50713 0.22099,5.45496 -0.80644,5.74864 -4.29609,11.62932 -10.70203,18.03475 -4.93047,4.93007 -11.22751,9.7661 -15.55656,11.94719 -1.93634,0.97557 -1.99351,0.98136 -1.84817,0.18666 z m -23.99134,-62.25415 c 0,-0.24239 0.72162,-2.63431 1.60357,-5.3154 4.8672,-14.79582 7.71074,-29.6493 8.73538,-45.62973 0.40483,-6.31437 0.1806,-20.68602 -0.41608,-26.66294 -1.96331,-19.66705 -6.69533,-38.03625 -13.73282,-53.30939 -1.34918,-2.92809 -1.52913,-3.47778 -1.13854,-3.47778 0.66298,0 7.57298,13.85694 10.19983,20.45414 5.90451,14.82907 9.34467,28.74303 10.81311,43.7342 0.51195,5.2265 0.43359,18.6848 -0.13872,23.81832 -1.76689,15.84953 -6.09792,29.66612 -13.5614,43.26264 -1.88624,3.43627 -2.36433,4.06836 -2.36433,3.12594 z m -6.44011,78.26555 6.45374,-5.79213 -0.77844,-0.82718 c -0.42812,-0.45494 -3.01574,-3.24939 -5.75024,-6.20985 -2.7345,-2.96047 -5.05766,-5.41741 -5.16254,-5.45992 -0.29643,-0.12005 -1.2503,2.27513 -1.85284,4.65251 -0.91836,3.62338 -1.73887,9.87284 -2.0672,15.74432 -0.0869,1.55424 -0.22592,3.66412 -0.30895,4.6886 l -0.15096,1.8627 1.58185,-1.43346 c 0.87002,-0.7884 4.48603,-4.03991 8.03558,-7.22559 z m -205.99865,5.14021 11.09999,-1.82136 -0.15973,-5.38267 c -0.18689,-6.29881 -0.71613,-11.10187 -1.83386,-16.64238 -1.00773,-4.99542 -2.7371,-10.36455 -3.59605,-11.1646 -1.32565,-1.23479 -3.61333,-0.42758 -6.06082,2.13855 l -1.12286,1.17728 -0.14091,4.70983 c -0.20741,6.93178 -1.14459,10.69201 -3.0861,12.38211 -2.33844,2.03565 -5.6837,0.37985 -9.51927,-4.7118 -1.92381,-2.55381 -2.12305,-3.13317 -2.63768,-7.67031 -0.41791,-3.68435 -0.58197,-4.39158 -1.40469,-6.0555 -1.22601,-2.47952 -1.72437,-4.42386 -1.72831,-6.74279 -0.003,-2.26476 0.81594,-4.17119 2.37856,-5.5315 1.21133,-1.05449 4.69286,-2.66262 5.76444,-2.66262 0.67887,0 0.80582,-0.12019 0.92387,-0.87468 0.0752,-0.48107 0.26404,-1.67183 0.41948,-2.6461 0.15544,-0.97429 0.28262,-1.86781 0.28262,-1.98561 0,-0.37393 -2.16735,0.11252 -3.51263,0.7884 -5.05773,2.54108 -8.62255,12.49813 -9.13285,25.50931 -0.16879,4.30363 0.0982,5.58414 2.34265,11.23557 2.49327,6.27797 8.44463,17.7588 9.21021,17.76752 0.22769,0.003 5.40898,-0.81491 11.51394,-1.81665 z m 26.36009,-3.17922 c 6.71837,-0.384 12.46979,-0.74754 12.78093,-0.80789 0.55986,-0.10859 0.56187,-0.14103 0.1946,-3.14355 -1.37614,-11.25027 -5.31463,-21.93934 -10.66783,-28.95256 -2.82221,-3.69733 -2.10499,-3.3201 -15.15652,-7.97149 -6.46967,-2.30569 -11.88624,-4.19218 -12.03681,-4.19218 -0.15057,0 0.28494,0.61612 0.96781,1.36916 4.02086,4.434 7.5901,12.34642 9.25024,20.5062 1.11499,5.48042 1.53591,9.6842 1.69694,16.94715 0.10632,4.79493 0.24636,6.9322 0.45454,6.93675 0.16547,0.003 5.79772,-0.30759 12.5161,-0.69159 z m -31.51956,-15.13238 c 1.74507,-3.41436 2.52723,-8.37016 1.82987,-11.59414 -0.52075,-2.40742 -1.36553,-4.07708 -2.06282,-4.07708 -1.82646,0 -3.59424,-1.23758 -4.61329,-3.2296 -0.89309,-1.74581 -1.22997,-3.66167 -1.22997,-6.99483 0,-1.61225 -0.099,-2.99199 -0.21996,-3.06613 -0.12098,-0.0741 -0.73028,-0.006 -1.35397,0.15061 -0.80294,0.20206 -1.57233,0.72343 -2.63547,1.78597 -2.01503,2.01381 -2.92505,3.93031 -3.06907,6.46342 -0.1043,1.8342 -0.0436,2.10998 0.86724,3.93716 0.54018,1.08364 1.4478,2.38433 2.02384,2.90029 0.92774,0.83101 1.06343,1.11582 1.21453,2.54907 0.20894,1.98198 1.33904,5.60562 2.39837,7.6903 1.3978,2.75076 3.66466,4.72859 5.45243,4.75726 0.61761,0.009 0.85187,-0.20325 1.39827,-1.2723 z m 125.34019,-5.41207 10.14455,-4.00488 -0.0943,-2.02166 -0.0943,-2.02162 1.66189,-2.07346 c 5.23054,-6.52592 6.6968,-15.1489 4.23361,-24.89781 -0.3553,-1.40622 -0.77203,-2.88495 -0.92608,-3.28606 l -0.28008,-0.7293 -1.86608,0.76293 c -2.32204,0.94937 -5.04255,1.63763 -6.47306,1.63763 -1.05491,0 -1.08556,0.0253 -0.9703,0.80395 0.0654,0.44219 0.0388,1.1209 -0.0593,1.50826 -0.15763,0.62274 -0.28876,0.69151 -1.1323,0.5939 -0.88715,-0.10266 -0.94277,-0.0659 -0.79328,0.52462 0.38931,1.53791 0.95441,6.00009 0.95588,7.54782 0.002,2.23811 -0.6948,5.49487 -1.52234,7.11403 -0.82594,1.61596 -2.4627,3.21897 -4.07886,3.99465 -0.97822,0.46952 -1.511,0.55651 -2.61465,0.42689 -3.14388,-0.36917 -5.76173,-2.45963 -7.40398,-5.9124 -0.92222,-1.93898 -1.75134,-4.64382 -1.75134,-5.7135 0,-0.31429 -0.0661,-0.63706 -0.14707,-0.71724 -0.2108,-0.20903 -5.37375,1.18527 -5.64023,1.52319 -0.37811,0.47949 0.0378,8.72383 0.60481,11.98958 1.11742,6.43568 3.69234,12.27177 7.03093,15.93564 0.51108,0.56087 0.96121,1.01977 1.00032,1.01977 0.0391,0 4.63611,-1.8022 10.21563,-4.00493 z m 17.01619,-5.67973 c 0.69953,-0.29376 3.77125,-1.33598 6.82609,-2.316 3.05484,-0.98005 7.26909,-2.53922 9.36501,-3.46485 2.31413,-1.02202 5.92517,-2.29911 9.19456,-3.25176 l 5.38377,-1.56875 -0.17799,-3.78467 c -0.15421,-3.27844 -0.39699,-4.73852 -1.81526,-10.91666 -0.90051,-3.92263 -1.98626,-8.80945 -2.41278,-10.85962 -0.42655,-2.05018 -0.91745,-3.89712 -1.09087,-4.10429 -0.49966,-0.59691 -2.72552,-0.44946 -4.91517,0.32568 -2.62766,0.93012 -5.63166,2.4872 -8.82194,4.57263 -1.43438,0.9376 -2.71195,1.64105 -2.83904,1.56315 -0.12713,-0.0779 -0.23112,-0.54727 -0.23112,-1.04313 0,-1.38289 -1.71322,-7.77804 -2.85024,-10.63944 -1.65563,-4.16651 -4.69811,-9.64784 -7.22528,-13.017 -0.0986,-0.13141 -0.35889,-0.13106 -0.59649,0 -0.36285,0.20135 -0.10576,1.1708 1.84613,6.9615 1.24726,3.70018 2.58284,7.55059 2.96802,8.55647 0.689,1.79933 0.91509,3.41921 0.47727,3.41921 -0.12269,0 -0.55653,-1.1045 -0.96411,-2.45441 -0.40757,-1.34992 -1.3962,-3.74965 -2.19697,-5.3327 -2.43963,-4.82295 -6.87745,-11.85964 -7.47955,-11.85964 -0.12699,0 -0.766,0.68683 -1.42003,1.52626 l -1.18914,1.52629 2.77206,2.71257 c 5.06044,4.95187 8.00551,10.51033 9.62544,18.16705 0.71549,3.38166 1.2107,14.5003 0.78496,17.6238 -0.59391,4.35751 -2.61398,10.52797 -4.95632,15.13957 l -0.96077,1.89152 0.5853,0.58028 c 0.71454,0.70844 0.73647,0.70887 2.31446,0.0461 z m -162.00507,-18.65012 0,-11.11023 -5.18172,-0.88707 c -2.84997,-0.48791 -5.22912,-0.8401 -5.28703,-0.7827 -0.0579,0.0574 2.16214,5.24426 4.93344,11.52633 2.7713,6.28206 5.10363,11.63388 5.18296,11.89292 0.0794,0.25904 0.19105,0.47099 0.24829,0.47099 0.0573,0 0.10407,-4.99962 0.10407,-11.11024 z m 144.39687,7.97211 c 0.31239,-0.39374 0.84041,-1.57456 1.17333,-2.62405 0.51248,-1.61526 0.60401,-2.50709 0.59633,-5.81057 -0.007,-2.82609 -0.13884,-4.38494 -0.4796,-5.6518 -1.4383,-5.34755 -4.88579,-8.91997 -9.0159,-9.34259 -1.2769,-0.13067 -1.44695,-0.0806 -1.97172,0.58087 -2.0141,2.53863 -1.9716,11.79909 0.0793,17.28496 1.35649,3.62832 3.4427,5.53304 6.55397,5.98376 2.41732,0.3502 2.45711,0.34473 3.06429,-0.42058 z m -14.11263,-11.38925 1.01258,-0.51216 0.17227,-3.04373 c 0.28489,-5.03312 1.13259,-9.34666 2.06,-10.48222 0.43176,-0.52863 0.76353,-0.62654 2.12341,-0.62654 2.32318,0 4.82824,1.32104 8.8944,4.69038 1.79156,1.48454 3.3407,2.69976 3.44249,2.70052 0.10183,0 0.4419,-0.35623 0.75574,-0.79325 l 0.57065,-0.79453 -1.11965,-0.29893 c -0.62191,-0.16603 -1.63811,-0.77274 -2.28585,-1.3647 -2.14608,-1.96131 -3.03294,-5.21621 -2.72519,-10.00211 l 0.18605,-2.89318 -0.76937,-0.0298 c -1.59696,-0.0619 -2.17814,0.0788 -4.02676,0.974 -2.28821,1.10813 -5.24856,3.53838 -7.8655,6.45697 l -1.93052,2.15307 -0.73405,3.36417 c -0.81647,3.74173 -1.42848,7.48142 -1.70685,10.42951 l -0.18432,1.95181 1.55897,-0.68354 c 0.8574,-0.37595 2.01459,-0.91403 2.5715,-1.19574 z m -150.05978,-93.32319 3.21664,-5.32007 -0.8395,-0.0863 c -0.5166,-0.0531 -1.03855,0.0924 -1.357,0.37812 -0.28463,0.2554 -0.53161,0.35475 -0.54883,0.22079 -0.11331,-0.8815 -0.0485,-1.06615 0.41869,-1.19303 0.28771,-0.0782 3.4797,-2.74256 7.09332,-5.92094 l 6.57021,-5.77887 -1.39287,-0.45625 c -0.76608,-0.25095 -3.09704,-0.98684 -5.1799,-1.63533 l -3.78702,-1.17909 6.57921,-4.63722 6.5792,-4.63722 -2.86004,-2.30561 c -1.57303,-1.26809 -2.86005,-2.40328 -2.86005,-2.52265 0,-0.11937 4.3364,-2.41236 9.63646,-5.09551 5.30005,-2.68316 9.63645,-4.94322 9.63645,-5.02234 0,-0.0791 -0.91614,-1.8174 -2.03586,-3.86283 -1.39289,-2.54442 -2.03588,-4.00647 -2.03588,-4.62925 l 0,-0.91027 -2.5109,-0.62443 -2.51091,-0.62445 -4.8861,1.34595 c -2.68735,0.74027 -5.36245,1.45183 -5.94466,1.58126 -0.58223,0.12942 -1.19298,0.46615 -1.35725,0.74829 -0.16427,0.28214 -2.87706,4.33765 -6.02842,9.01226 -3.15136,4.6746 -5.88721,8.79709 -6.07967,9.16107 -0.19245,0.364 -1.23568,2.97532 -2.31829,5.80295 -1.61509,4.21842 -1.94965,5.35554 -1.864,6.33568 0.0575,0.65698 0.23533,2.89006 0.39536,4.9624 0.7964,10.3131 2.42219,22.84026 2.90244,22.3641 0.0839,-0.0831 1.60002,-2.54525 3.36917,-5.4713 z m 58.463,-45.42097 c 4.14748,-5.1068 7.64462,-9.2851 7.77138,-9.2851 0.41899,0 0.24064,1.03363 -0.54433,3.15456 -1.07499,2.90462 -3.721,8.65789 -4.79557,10.42718 l -0.89443,1.47264 1.12869,-0.1362 c 0.62075,-0.0749 6.74767,-0.61608 13.61535,-1.2026 7.79078,-0.66536 13.35439,-1.26545 14.79399,-1.59571 2.29693,-0.52692 7.32985,-1.29411 9.32845,-1.42197 1.04095,-0.0666 0.96644,-0.13245 -9.43287,-8.33825 -5.76515,-4.54912 -10.48211,-8.15214 -10.48211,-8.00672 0,0.67378 -0.62531,0.14808 -1.10637,-0.93013 -0.52257,-1.1713 -3.20251,-3.81901 -7.17284,-7.08659 -4.38594,-3.60962 -10.57429,-7.09464 -15.33691,-8.63711 -2.46993,-0.79995 -7.52148,-1.82013 -7.77379,-1.56996 -0.0663,0.0658 0.73943,0.75184 1.79067,1.52452 1.05127,0.77268 1.91139,1.50737 1.91139,1.63265 0,0.39318 -0.49086,0.54841 -0.6133,0.19393 -0.0736,-0.21335 -0.58076,0.084 -1.37437,0.80573 -0.69168,0.6291 -1.13096,1.14381 -0.97618,1.14381 0.49813,0 -0.0308,0.53141 -1.05844,1.06333 -0.54974,0.28455 -1.72458,1.18886 -2.61072,2.00959 -0.88614,0.82072 -1.63307,1.46422 -1.65978,1.43 -0.0268,-0.0343 -0.19199,-0.33543 -0.36725,-0.66935 -0.30627,-0.5836 -0.35095,-0.59053 -1.1536,-0.17902 -2.43905,1.25053 -4.46786,4.15558 -5.14173,7.36243 -0.49125,2.33782 -0.14928,8.17219 0.68721,11.7248 0.60294,2.56074 2.88171,9.92503 3.01706,9.75031 0.0264,-0.0338 2.15992,-3.93702 4.7416,-8.67377 2.58168,-4.73676 4.84409,-8.77569 5.0276,-8.97541 0.26526,-0.28869 0.3684,0.95291 0.50311,6.0555 0.25144,9.52517 0.48551,16.24202 0.56597,16.24202 0.0392,0 3.46462,-4.1783 7.61212,-9.28511 z"
       id="path3347"
       inkscape:connector-curvature="0" />
  </g>
</svg>
