<?xml version="1.0" ?><!DOCTYPE svg  PUBLIC '-//W3C//DTD SVG 1.1//EN'  'http://www.w3.org/Graphics/SVG/1.1/DTD/svg11.dtd'><svg width="512px" height="512px" viewBox="0 0 512 512" enable-background="new 0 0 512 512" id="thinking_1_" version="1.1" xml:space="preserve" xmlns="http://www.w3.org/2000/svg" xmlns:xlink="http://www.w3.org/1999/xlink"><g id="thinking"><linearGradient gradientUnits="userSpaceOnUse" id="SVGID_1_" x1="103.4199" x2="404.6967" y1="344.7432" y2="170.8009"><stop offset="0" style="stop-color:#F14D5C"/><stop offset="0.1309" style="stop-color:#F05454"/><stop offset="0.3346" style="stop-color:#ED663E"/><stop offset="0.3492" style="stop-color:#ED683C"/><stop offset="0.714" style="stop-color:#F3903F"/><stop offset="1" style="stop-color:#FDC70C"/></linearGradient><path d="M402.087,210.806c2.694-6.86,4.078-14.104,4.078-21.607c0-32.681-26.594-59.269-59.283-59.269   l-0.561,0.002c-0.901-0.027-1.752-0.62-2.037-1.563c-7.4-24.456-30.428-41.537-55.999-41.537h-1.054   c-13.232,0-24.839,7.084-31.231,17.658c-6.393-10.574-17.999-17.658-31.231-17.658h-1.054c-25.571,0-48.599,17.081-55.999,41.537   c-0.283,0.937-1.093,1.563-2.021,1.563c-0.007,0-0.013,0-0.019,0l-0.559-0.002c-32.689,0-59.284,26.588-59.284,59.269   c0,7.503,1.385,14.748,4.079,21.607c-16.685,10.911-26.879,29.54-26.879,49.655c0,20.373,10.367,39.104,27.34,49.951   c-2.575,6.186-4.082,12.717-4.451,19.488c-0.873,16.021,4.684,31.412,15.646,43.34c10.936,11.898,25.761,18.713,41.745,19.189   c2.081,0.061,4.177,0.016,6.237-0.137c0.902-0.064,1.749,0.387,2.146,1.156c10.086,19.564,30.018,31.719,52.019,31.719h1.054   c13.232,0,24.839-7.084,31.231-17.658c6.393,10.574,17.999,17.658,31.231,17.658h1.054c22.001,0,41.933-12.154,52.018-31.719   c0.397-0.77,1.246-1.223,2.147-1.156c2.061,0.152,4.158,0.197,6.236,0.137c15.984-0.477,30.809-7.291,41.745-19.189   c10.962-11.928,16.519-27.318,15.646-43.34c-0.369-6.77-1.876-13.299-4.452-19.488c16.973-10.848,27.341-29.578,27.341-49.951   C428.966,240.346,418.771,221.717,402.087,210.806z M224.769,415.168h-1.054c-18.24,0-34.767-10.078-43.13-26.301   c-2.238-4.342-6.851-6.916-11.771-6.547c-1.718,0.127-3.468,0.164-5.203,0.113c-13.267-0.396-25.583-6.064-34.68-15.961   c-9.123-9.926-13.748-22.721-13.022-36.029c0.379-6.949,2.175-13.602,5.335-19.766c8.507-16.525,25.319-26.791,43.875-26.791   c8.074,0,16.082,1.99,23.157,5.754l4.697-8.828c-8.516-4.531-18.147-6.926-27.854-6.926c-20.533,0-39.283,10.455-50.121,27.605   c-13.656-9.088-21.963-24.402-21.963-41.031c0-16.314,8.065-31.458,21.34-40.613c10.66,17.553,30.017,28.635,50.744,28.635   c9.962,0,19.81-2.515,28.479-7.272l-4.811-8.767c-7.199,3.951-15.384,6.039-23.668,6.039c-19.057,0-36.064-10.665-44.388-27.832   c-3.249-6.704-4.896-13.922-4.896-21.453c0-27.167,22.109-49.269,49.284-49.269l0.47,0.002c0.038,0,0.075,0,0.113,0   c5.366,0,10.014-3.471,11.586-8.667c6.135-20.274,25.227-34.433,46.428-34.433h1.054c13.304,0,24.342,9.867,26.192,22.666   c-0.13,1.25-0.199,2.519-0.199,3.803v66.049c-5.838-5.632-13.757-9.117-22.48-9.16v-0.004c-12.486,0-22.646-10.159-22.646-22.646   h-10c0,17.946,14.556,32.552,32.48,32.641v0.004c12.487,0,22.646,10.159,22.646,22.646v57.646   c-15.308,2.639-27.002,15.965-27.083,31.996h-0.004c0,12.488-10.158,22.646-22.646,22.646v10c17.945,0,32.552-14.557,32.642-32.48   h0.004c0-10.568,7.279-19.469,17.087-21.953v108.012c0,1.283,0.069,2.553,0.199,3.803   C249.11,405.301,238.072,415.168,224.769,415.168z M397.003,301.492c-10.834-17.148-29.586-27.605-50.121-27.605   c-9.707,0-19.34,2.395-27.855,6.926l4.697,8.828c7.076-3.764,15.084-5.754,23.158-5.754c18.556,0,35.367,10.266,43.871,26.783   c3.164,6.172,4.96,12.824,5.338,19.773c0.727,13.309-3.898,26.104-13.021,36.029c-9.098,9.896-21.413,15.564-34.68,15.961   c-1.734,0.053-3.484,0.014-5.203-0.113c-4.91-0.363-9.533,2.207-11.771,6.547c-8.363,16.223-24.89,26.301-43.13,26.301h-1.054   c-13.304,0-24.342-9.867-26.192-22.666c0.13-1.25,0.198-2.52,0.198-3.803v-56.375c5.789,5.365,13.518,8.664,22.005,8.705v0.004   c12.487,0,22.646,10.16,22.646,22.646h10c0-17.945-14.556-32.553-32.48-32.641v-0.006c-10.902,0-20.029-7.744-22.17-18.021v-68.085   c15.35-2.604,27.086-15.952,27.166-32.012h0.004c0-12.486,10.158-22.646,22.646-22.646v-10c-17.946,0-32.552,14.556-32.642,32.48   h-0.004c0,10.599-7.32,19.517-17.17,21.972v-111.42c0-1.284-0.068-2.553-0.198-3.803c1.851-12.799,12.889-22.666,26.192-22.666   h1.054c21.201,0,40.293,14.159,46.427,34.433c1.573,5.196,6.221,8.667,11.584,8.667c0.037,0,0.076,0,0.113,0l0.473-0.002   c27.175,0,49.283,22.102,49.283,49.269c0,7.531-1.646,14.749-4.896,21.452c-8.323,17.167-25.331,27.832-44.388,27.832   c-8.285,0-16.469-2.088-23.668-6.039l-4.811,8.767c8.669,4.758,18.517,7.272,28.479,7.272c20.728,0,40.084-11.083,50.744-28.635   c13.274,9.155,21.34,24.299,21.34,40.613C418.966,277.09,410.659,292.404,397.003,301.492z" fill="url(#SVGID_1_)"/></g></svg>